<svg width="63" height="33" viewBox="0 0 63 33" fill="none" xmlns="http://www.w3.org/2000/svg">
<path d="M48.7358 4.96988C48.7358 7.71467 46.5184 9.93976 43.783 9.93976C41.0476 9.93976 38.8302 7.71467 38.8302 4.96988C38.8302 2.22509 41.0476 0 43.783 0C46.5184 0 48.7358 2.22509 48.7358 4.96988Z" fill="white"/>
<path d="M32.4906 4.57229C32.4906 6.54854 30.894 8.1506 28.9245 8.1506C26.9551 8.1506 25.3585 6.54854 25.3585 4.57229C25.3585 2.59604 26.9551 0.993976 28.9245 0.993976C30.894 0.993976 32.4906 2.59604 32.4906 4.57229Z" fill="white"/>
<path d="M25.5566 16.5C25.5566 18.4762 23.96 20.0783 21.9906 20.0783C20.0211 20.0783 18.4245 18.4762 18.4245 16.5C18.4245 14.5238 20.0211 12.9217 21.9906 12.9217C23.96 12.9217 25.5566 14.5238 25.5566 16.5Z" fill="white"/>
<path d="M18.6226 28.2289C18.6226 30.2052 17.0261 31.8072 15.0566 31.8072C13.0871 31.8072 11.4906 30.2052 11.4906 28.2289C11.4906 26.2527 13.0871 24.6506 15.0566 24.6506C17.0261 24.6506 18.6226 26.2527 18.6226 28.2289Z" fill="white"/>
<path d="M4.75472 28.3085C4.75472 29.626 3.69034 30.6941 2.37736 30.6941C1.06438 30.6941 0 29.626 0 28.3085C0 26.991 1.06438 25.923 2.37736 25.923C3.69034 25.923 4.75472 26.991 4.75472 28.3085Z" fill="white"/>
<path d="M11.6094 16.5C11.6094 17.8175 10.545 18.8855 9.232 18.8855C7.91902 18.8855 6.85464 17.8175 6.85464 16.5C6.85464 15.1825 7.91902 14.1145 9.232 14.1145C10.545 14.1145 11.6094 15.1825 11.6094 16.5Z" fill="white"/>
<path d="M18.6226 4.57229C18.6226 5.88979 17.5583 6.95783 16.2453 6.95783C14.9323 6.95783 13.8679 5.88979 13.8679 4.57229C13.8679 3.25479 14.9323 2.18675 16.2453 2.18675C17.5583 2.18675 18.6226 3.25479 18.6226 4.57229Z" fill="white"/>
<path d="M63 28.0301C63 30.7749 60.7825 33 58.0472 33C55.3118 33 53.0943 30.7749 53.0943 28.0301C53.0943 25.2853 55.3118 23.0602 58.0472 23.0602C60.7825 23.0602 63 25.2853 63 28.0301Z" fill="white"/>
<path d="M34.8679 28.0301C34.8679 30.7749 32.6505 33 29.9151 33C27.1797 33 24.9623 30.7749 24.9623 28.0301C24.9623 25.2853 27.1797 23.0602 29.9151 23.0602C32.6505 23.0602 34.8679 25.2853 34.8679 28.0301Z" fill="white"/>
<path d="M55.8679 16.1024C55.8679 18.8472 53.6505 21.0723 50.9151 21.0723C48.1797 21.0723 45.9623 18.8472 45.9623 16.1024C45.9623 13.3576 48.1797 11.1325 50.9151 11.1325C53.6505 11.1325 55.8679 13.3576 55.8679 16.1024Z" fill="white"/>
<path d="M42 16.1024C42 18.8472 39.7825 21.0723 37.0472 21.0723C34.3118 21.0723 32.0943 18.8472 32.0943 16.1024C32.0943 13.3576 34.3118 11.1325 37.0472 11.1325C39.7825 11.1325 42 13.3576 42 16.1024Z" fill="white"/>
</svg>
