<svg width="54" height="54" viewBox="0 0 54 54" fill="none" xmlns="http://www.w3.org/2000/svg">
<path d="M47.7189 53.2405L5.91445 52.9361C2.8582 52.9174 0.365475 50.4247 0.346796 47.3684L0.0423379 5.56399C0.023653 2.50774 2.48609 0.0453086 5.54234 0.0639935C8.59859 0.0826784 11.0913 2.5754 11.11 5.63165L11.3328 34.0762L43.6914 1.71766C44.7502 0.658834 46.1863 0.0639942 47.6837 0.0639945L47.8403 0.0639925C50.872 0.0639946 53.3296 2.52166 53.3296 5.55335C53.3296 7.00922 52.7513 8.40546 51.7218 9.43491L19.2066 41.9501L47.6512 42.1729C50.7075 42.1916 53.2002 44.6843 53.2189 47.7405C53.2376 50.7968 50.7751 53.2592 47.7189 53.2405Z" fill="#2F2F2F"/>
</svg>
