<svg width="34" height="19" viewBox="0 0 34 19" fill="none" xmlns="http://www.w3.org/2000/svg">
<path d="M2 8.20117C1.30964 8.20117 0.75 8.76082 0.75 9.45117C0.75 10.1415 1.30964 10.7012 2 10.7012V8.20117ZM32.8839 10.3351C33.372 9.8469 33.372 9.05544 32.8839 8.56729L24.9289 0.612337C24.4408 0.124182 23.6493 0.124182 23.1612 0.612337C22.673 1.10049 22.673 1.89195 23.1612 2.3801L30.2322 9.45117L23.1612 16.5222C22.673 17.0104 22.673 17.8019 23.1612 18.29C23.6493 18.7782 24.4408 18.7782 24.9289 18.29L32.8839 10.3351ZM2 10.7012H32V8.20117H2V10.7012Z" fill="#FAFAFA"/>
</svg>
