<svg width="55" height="54" viewBox="0 0 55 54" fill="none" xmlns="http://www.w3.org/2000/svg">
<path d="M6.54674 53.223L48.3512 52.9185C51.4074 52.8998 53.9001 50.4071 53.9188 47.3509L54.2233 5.54642C54.242 2.49016 51.7795 0.0277305 48.7233 0.0464154C45.667 0.0651003 43.1743 2.55782 43.1556 5.61407L42.9328 34.0587L10.5743 1.70008C9.51543 0.641255 8.07936 0.0464161 6.58196 0.0464164L6.42536 0.0464144C3.39367 0.0464165 0.936006 2.50408 0.936007 5.53577C0.936006 6.99164 1.51435 8.38788 2.5438 9.41733L35.059 41.9325L6.6144 42.1553C3.55815 42.174 1.06542 44.6667 1.04674 47.723C1.02806 50.7792 3.49049 53.2416 6.54674 53.223Z" fill="#2F2F2F"/>
</svg>
