<svg width="382" height="281" viewBox="0 0 382 281" fill="none" xmlns="http://www.w3.org/2000/svg">
<rect width="382" height="281" rx="20" fill="#C4F449"/>
<mask id="mask0_8_579" style="mask-type:alpha" maskUnits="userSpaceOnUse" x="0" y="0" width="383" height="281">
<rect x="0.00012207" width="382" height="281" rx="20" fill="#C4F449"/>
</mask>
<g mask="url(#mask0_8_579)">
<path opacity="0.0375" d="M250.654 227.428C339.583 457.727 -84.2818 364.485 19.5723 226.496C71.2402 157.851 -75.6354 69.7561 -7.2176 16.091C61.16 -37.6197 104.111 22.4915 184.212 49.1731C284.427 81.9601 227.139 166.486 250.654 227.428Z" stroke="white" stroke-width="1.21588" stroke-miterlimit="10"/>
<path opacity="0.075" d="M255.145 225.904C331.445 448.206 -73.2271 370.142 16.8236 229.077C61.1854 159.493 -70.324 61.436 -0.837466 13.3095C68.5633 -34.8225 115.169 19.3186 188.703 49.6742C280.366 87.5594 234.319 165.35 255.145 225.904Z" stroke="white" stroke-width="1.21588" stroke-miterlimit="10"/>
<path opacity="0.1125" d="M259.55 224.376C323.541 438.399 -62.3201 376.093 13.9945 231.568C51.1654 161.268 -65.0127 53.1168 5.53715 10.6147C75.8752 -31.9439 126.317 16.0664 193.143 50.3023C276.408 92.9078 241.59 164.133 259.55 224.376Z" stroke="white" stroke-width="1.21588" stroke-miterlimit="10"/>
<path opacity="0.15" d="M264.039 222.852C316.047 428.229 -51.259 382.31 11.2448 234.15C41.1334 163.213 -59.7426 44.7508 11.8706 7.87313C83.2318 -29.1068 137.298 12.7162 197.588 50.8433C272.362 98.2494 248.866 162.83 264.039 222.852Z" stroke="white" stroke-width="1.21588" stroke-miterlimit="10"/>
<path opacity="0.1875" d="M268.49 221.284C308.964 417.699 -40.0817 388.752 8.45586 236.686C31.2685 165.256 -54.4714 36.386 18.2507 5.09251C90.6351 -26.3086 148.372 9.2868 202.073 51.4311C268.363 103.552 256.148 161.442 268.49 221.284Z" stroke="white" stroke-width="1.21588" stroke-miterlimit="10"/>
<path opacity="0.225" d="M272.936 219.801C302.282 406.979 -28.7085 395.506 5.62195 239.263C21.3934 167.47 -49.205 28.1064 24.5402 2.39166C97.9476 -23.4307 159.4 5.89703 206.474 52.0129C264.325 108.809 263.567 159.933 272.936 219.801Z" stroke="white" stroke-width="1.21588" stroke-miterlimit="10"/>
<path opacity="0.2625" d="M277.386 218.232C296.18 395.908 -17.0392 402.323 2.83222 241.798C11.7742 169.7 -43.9347 19.7405 30.8738 -0.349795C105.304 -20.5934 170.433 2.42101 210.913 52.6399C260.336 113.939 271.031 158.384 277.386 218.232Z" stroke="white" stroke-width="1.21588" stroke-miterlimit="10"/>
<path opacity="0.3" d="M281.83 216.749C290.691 384.703 -5.03718 409.333 0.0374165 244.42C2.27589 172.068 -38.6694 11.461 37.248 -3.04511C112.702 -17.7099 181.511 -1.09468 215.352 53.2674C256.348 119.069 278.678 156.674 281.83 216.749Z" stroke="white" stroke-width="1.21588" stroke-miterlimit="10"/>
<path opacity="0.3375" d="M286.282 215.18C285.774 373.319 7.31985 416.193 -2.74556 246.87C-7.03898 174.274 -33.3522 3.0548 43.583 -5.78672C120.02 -14.9184 192.636 -4.65119 219.798 53.8084C252.452 124.119 286.497 154.975 286.282 215.18Z" stroke="white" stroke-width="1.21588" stroke-miterlimit="10"/>
<path opacity="0.375" d="M290.726 213.697C281.502 361.934 20.0191 423.076 -5.54045 249.492C-16.269 176.486 -28.087 -5.22482 49.9625 -8.56792C127.377 -12.0807 203.892 -8.2418 224.284 54.3957C248.595 129.215 294.487 153.287 290.726 213.697Z" stroke="white" stroke-width="1.21588" stroke-miterlimit="10"/>
<path opacity="0.4125" d="M295.177 212.128C277.837 350.501 32.9529 429.671 -8.32897 252.028C-25.4069 178.618 -22.8154 -13.5906 56.2974 -11.3093C134.735 -9.24328 215.103 -11.7926 228.684 54.9771C244.83 134.23 302.781 151.575 295.177 212.128Z" stroke="white" stroke-width="1.21588" stroke-miterlimit="10"/>
<path opacity="0.45" d="M299.623 210.646C274.756 339.364 46.1092 436.152 -11.1633 254.605C-34.4994 180.71 -17.5897 -21.9153 62.5864 -14.0097C142.047 -6.3649 226.313 -15.3426 233.084 55.5594C241.099 139.377 311.372 149.926 299.623 210.646Z" stroke="white" stroke-width="1.21588" stroke-miterlimit="10"/>
<path opacity="0.4875" d="M304.072 209.077C272.131 328.472 59.4974 442.347 -13.9136 257.187C-43.4165 182.727 -12.2397 -30.1891 69.0051 -16.7448C149.489 -3.52133 237.734 -18.8361 237.608 56.1926C237.413 144.484 320.294 148.47 304.072 209.077Z" stroke="white" stroke-width="1.21588" stroke-miterlimit="10"/>
<path opacity="0.525" d="M308.518 207.593C269.951 318.08 72.8587 448.322 -16.7474 259.762C-52.4518 184.605 -6.96781 -38.556 75.2546 -19.4927C156.761 -0.690471 248.94 -22.3022 241.969 56.7273C233.769 149.635 329.591 147.251 308.518 207.593Z" stroke="white" stroke-width="1.21588" stroke-miterlimit="10"/>
<path opacity="0.5625" d="M312.968 206.026C268.034 308.267 86.3151 454.134 -19.4915 262.26C-61.3517 186.366 -1.69743 -46.9198 81.6339 -22.2724C164.124 2.06301 260.361 -25.7946 246.413 57.2705C230.078 154.829 339.252 146.361 312.968 206.026Z" stroke="white" stroke-width="1.21588" stroke-miterlimit="10"/>
<path opacity="0.6" d="M317.458 204.502C266.159 299.145 99.7882 459.687 -22.2809 264.795C-70.3318 188.034 3.65898 -55.2805 88.0134 -25.0543C171.526 4.8599 271.737 -29.249 250.898 57.857C226.427 160.066 349.19 145.873 317.458 204.502Z" stroke="white" stroke-width="1.21588" stroke-miterlimit="10"/>
<path d="M9.53272 313.817C-352.867 412.038 -38.8256 -141.637 100.862 27.5409C170.76 112.284 338.4 -85.0926 393.686 9.27341C448.973 103.639 343.83 144.843 280.293 253.094C200.994 388.339 103.198 288.466 9.53272 313.817Z" stroke="white" stroke-width="1.21588" stroke-miterlimit="10"/>
<path opacity="0.95" d="M9.97347 319.747C-337.665 402.626 -50.4872 -128.293 98.3967 23.6374C172.374 99.1207 347.717 -77.1756 395.038 17.8032C442.406 112.742 344.309 159.649 277.822 258.752C195.326 382.638 101.739 297.851 9.97347 319.747Z" stroke="white" stroke-width="1.21588" stroke-miterlimit="10"/>
<path opacity="0.9" d="M10.3738 325.631C-322.222 393.486 -62.5216 -115.189 95.9769 19.6926C173.776 85.8997 357.079 -69.2998 396.35 26.2863C435.758 121.752 344.46 174.175 275.356 264.324C189.286 376.696 100.366 307.24 10.3738 325.631Z" stroke="white" stroke-width="1.21588" stroke-miterlimit="10"/>
<path opacity="0.85" d="M10.7289 331.555C-306.463 384.799 -75.0703 -102.118 93.5119 15.7887C174.96 72.7087 366.396 -61.3831 397.657 34.8559C429.059 130.889 344.773 188.884 272.839 270.023C183.498 370.858 99.0729 316.721 10.7289 331.555Z" stroke="white" stroke-width="1.21588" stroke-miterlimit="10"/>
<path opacity="0.8" d="M11.1705 337.483C-290.383 376.474 -88.0127 -88.944 91.1389 11.8025C176.014 59.5504 375.845 -53.503 399.061 43.2574C422.504 139.817 345.228 203.385 270.42 275.553C177.757 364.977 97.9067 326.251 11.1705 337.483Z" stroke="white" stroke-width="1.21588" stroke-miterlimit="10"/>
<path opacity="0.75" d="M11.5707 343.366C-273.947 368.647 -101.356 -75.5794 88.6733 7.8975C176.753 46.5883 385.162 -45.5875 400.367 51.8259C415.851 148.912 345.626 218.099 267.949 281.211C172.054 359.143 96.8652 335.833 11.5707 343.366Z" stroke="white" stroke-width="1.21588" stroke-miterlimit="10"/>
<path opacity="0.7" d="M11.9717 349.251C-257.251 361.484 -115.109 -61.8517 86.2543 3.95393C177.356 33.7483 394.525 -37.7104 401.679 60.3102C409.158 157.964 346.076 232.688 265.438 286.824C166.398 353.27 95.905 345.508 11.9717 349.251Z" stroke="white" stroke-width="1.21588" stroke-miterlimit="10"/>
<path opacity="0.65" d="M12.3668 355.22C-240.251 354.942 -129.062 -47.7074 83.8347 0.00887612C177.861 21.073 403.888 -29.8349 403.077 68.7985C402.556 166.933 346.651 247.326 263.058 292.401C160.868 347.447 95.0245 355.272 12.3668 355.22Z" stroke="white" stroke-width="1.21588" stroke-miterlimit="10"/>
<path opacity="0.6" d="M12.7676 361.104C-223.082 349.143 -143.087 -33.0936 81.4153 -3.93586C178.305 8.69559 413.245 -21.8732 404.383 77.3674C395.904 176.029 347.176 262.091 260.542 298.099C155.332 341.71 94.2594 365.26 12.7676 361.104Z" stroke="white" stroke-width="1.21588" stroke-miterlimit="10"/>
<path opacity="0.55" d="M13.1682 366.988C-205.791 344.128 -157.054 -18.0447 78.9904 -7.79411C178.824 -3.50408 422.607 -13.9966 405.695 85.8512C389.256 185.04 347.786 276.863 258.076 303.671C149.836 336.02 93.5689 375.425 13.1682 366.988Z" stroke="white" stroke-width="1.21588" stroke-miterlimit="10"/>
<path opacity="0.5" d="M13.5634 372.957C-188.469 339.975 -170.923 -2.51743 76.571 -11.74C179.377 -15.5741 431.97 -6.12195 407.093 94.3386C382.649 194.094 348.396 291.632 255.565 309.282C144.335 330.413 92.8622 385.846 13.5634 372.957Z" stroke="white" stroke-width="1.21588" stroke-miterlimit="10"/>
<path opacity="0.45" d="M13.9637 378.841C-171.288 336.676 -184.55 13.2857 74.1512 -15.6838C180.01 -27.5509 441.287 1.79501 408.405 102.823C376.001 203.105 349 306.489 253.099 314.855C138.873 324.854 92.0474 396.607 13.9637 378.841Z" stroke="white" stroke-width="1.21588" stroke-miterlimit="10"/>
<path opacity="0.4" d="M14.405 384.771C-154.332 334.224 -197.936 29.3618 71.7322 -19.6284C180.765 -39.3914 450.736 9.6765 409.758 111.352C369.395 212.161 349.6 321.431 250.674 320.473C133.322 319.375 91.206 407.796 14.405 384.771Z" stroke="white" stroke-width="1.21588" stroke-miterlimit="10"/>
<path opacity="0.35" d="M14.8055 390.655C-137.895 332.471 -211.156 45.5349 69.3125 -23.5726C181.604 -51.2263 460.098 17.5528 411.069 119.835C362.701 221.212 350.153 336.414 248.163 326.085C127.809 313.941 90.125 419.358 14.8055 390.655Z" stroke="white" stroke-width="1.21588" stroke-miterlimit="10"/>
<path opacity="0.3" d="M15.1611 396.578C-122.147 331.405 -224.13 61.8946 66.848 -27.4782C182.485 -63.0169 469.416 25.4679 412.422 128.363C356.095 230.267 350.661 351.435 245.738 331.702C122.166 308.541 88.6231 431.452 15.1611 396.578Z" stroke="white" stroke-width="1.21588" stroke-miterlimit="10"/>
<path opacity="0.25" d="M15.6008 402.508C-107.321 330.584 -236.847 78.2723 64.4275 -31.4223C183.535 -74.795 478.731 33.3845 413.733 136.847C349.446 239.277 351.082 366.453 243.226 337.315C116.521 303.142 86.5719 444.029 15.6008 402.508Z" stroke="white" stroke-width="1.21588" stroke-miterlimit="10"/>
<path opacity="0.2" d="M16.0018 408.391C-93.5342 329.868 -249.391 94.6602 62.0084 -35.3672C184.627 -86.5282 488.094 41.2603 415.086 145.375C342.794 248.373 351.505 381.47 240.755 342.972C110.833 297.783 83.8486 457.036 16.0018 408.391Z" stroke="white" stroke-width="1.21588" stroke-miterlimit="10"/>
<path opacity="0.2" d="M-45.6882 116.935C-275.194 -192.831 395.027 -160.617 275.203 63.1087C215.217 175.117 474.157 241.833 399.187 344.272C324.217 446.712 244.857 363.089 113.019 354.736C-51.5897 344.211 13.6159 196.911 -45.6882 116.935Z" stroke="white" stroke-width="1.21588" stroke-miterlimit="10"/>
<path opacity="0.2125" d="M-51.5003 120.269C-260.058 -182.262 377.37 -165.403 278.284 58.6955C228.973 170.135 469.609 255.069 391.122 349.832C312.721 444.601 230.136 371.025 106.449 355.093C-47.949 335.741 3.7091 200.286 -51.5003 120.269Z" stroke="white" stroke-width="1.25388" stroke-miterlimit="10"/>
<path opacity="0.225" d="M-57.2718 123.65C-245.127 -171.187 359.774 -170.486 281.365 54.2833C242.741 164.982 465.062 268.305 383.058 355.393C301.22 442.577 215.49 378.492 99.9648 355.456C-44.1893 326.763 -6.24843 203.788 -57.2718 123.65Z" stroke="white" stroke-width="1.29188" stroke-miterlimit="10"/>
<path opacity="0.2375" d="M-63.0904 127.07C-230.492 -159.529 342.079 -176.049 284.485 49.9164C256.519 159.657 460.514 281.541 374.987 361.039C289.718 440.553 200.911 386.222 93.3937 355.813C-40.3615 318.048 -16.1726 207.421 -63.0904 127.07Z" stroke="white" stroke-width="1.32987" stroke-miterlimit="10"/>
<path opacity="0.25" d="M-68.9021 130.404C-216.233 -147.379 324.15 -181.972 287.521 45.5436C270.051 154.143 455.921 294.817 366.917 366.685C278.257 438.573 186.374 393.998 86.9042 356.262C-36.5781 309.372 -26.0608 211.184 -68.9021 130.404Z" stroke="white" stroke-width="1.36787" stroke-miterlimit="10"/>
<path opacity="0.2625" d="M-74.6735 133.785C-202.354 -134.649 305.94 -188.214 290.602 41.1314C283.423 148.448 451.329 308.094 358.854 372.245C266.802 436.509 171.836 401.774 80.3346 356.619C-32.7141 300.788 -35.9999 215.075 -74.6735 133.785Z" stroke="white" stroke-width="1.40587" stroke-miterlimit="10"/>
<path opacity="0.275" d="M-80.5319 137.159C-189.116 -121.357 287.27 -194.702 293.682 36.7183C296.588 142.609 446.741 321.284 350.743 377.845C255.254 434.524 157.293 409.635 73.7638 356.976C-28.8567 292.289 -46.0825 219.171 -80.5319 137.159Z" stroke="white" stroke-width="1.44386" stroke-miterlimit="10"/>
<path opacity="0.2875" d="M-86.3035 140.539C-176.475 -107.458 268.137 -201.347 296.758 32.3913C309.576 136.846 442.188 334.606 342.673 383.491C243.753 432.5 142.745 417.582 67.2342 357.378C-24.9583 283.836 -56.2152 223.393 -86.3035 140.539Z" stroke="white" stroke-width="1.48186" stroke-miterlimit="10"/>
<path opacity="0.3" d="M-92.0752 143.919C-164.548 -93.1723 248.484 -207.94 299.839 27.9787C322.267 131.021 437.641 347.842 334.563 389.091C232.298 430.435 128.151 425.569 60.6643 357.735C-21.111 275.51 -66.4849 227.736 -92.0752 143.919Z" stroke="white" stroke-width="1.51985" stroke-miterlimit="10"/>
<path opacity="0.3125" d="M-97.9332 147.293C-153.472 -78.382 228.345 -214.349 302.92 23.5652C334.785 125.184 433.093 361.078 326.538 394.696C220.796 428.41 113.551 433.641 54.134 358.137C-17.3957 267.217 -76.9834 232.279 -97.9332 147.293Z" stroke="white" stroke-width="1.55785" stroke-miterlimit="10"/>
<path opacity="0.325" d="M-103.705 150.673C-143.19 -63.2971 207.802 -220.482 305.996 19.2382C347.111 119.68 428.455 374.394 318.469 400.342C209.336 426.431 98.906 441.754 47.6047 358.54C-13.6849 259.01 -87.7894 236.932 -103.705 150.673Z" stroke="white" stroke-width="1.59585" stroke-miterlimit="10"/>
<path opacity="0.3375" d="M-109.523 154.094C-133.864 -48.0998 186.978 -226.287 309.076 14.8262C359.355 114.085 423.907 387.631 310.358 405.943C197.793 424.361 84.1337 449.817 41.0791 358.858C-10.1017 250.754 -98.9403 241.564 -109.523 154.094Z" stroke="white" stroke-width="1.63384" stroke-miterlimit="10"/>
<path opacity="0.35" d="M-115.334 157.428C-125.439 -32.9182 165.917 -231.721 312.158 10.413C371.499 108.742 419.361 400.866 302.294 411.503C186.293 422.336 69.3178 457.919 34.5501 359.26C-6.60785 242.576 -110.609 246.248 -115.334 157.428Z" stroke="white" stroke-width="1.67184" stroke-miterlimit="10"/>
<path opacity="0.3625" d="M-121.107 160.808C-117.863 -17.9625 144.786 -236.771 315.192 6.04037C383.63 103.57 414.767 414.143 294.224 417.149C174.791 420.312 54.4144 466.016 28.0195 359.662C-3.15026 234.268 -122.749 250.859 -121.107 160.808Z" stroke="white" stroke-width="1.70984" stroke-miterlimit="10"/>
<path opacity="0.375" d="M-126.924 164.228C-111.026 -3.57081 123.595 -241.523 318.314 1.67313C395.843 98.4895 410.22 427.378 286.154 422.794C163.33 418.333 39.4721 474.067 21.49 360.065C0.222626 225.953 -135.518 255.215 -126.924 164.228Z" stroke="white" stroke-width="1.74783" stroke-miterlimit="10"/>
<path opacity="0.3875" d="M-132.737 167.562C-104.792 10.1363 102.432 -246.059 321.394 -2.73982C408.004 93.5348 405.626 440.654 278.089 428.354C151.828 416.308 24.5341 482.032 14.9192 360.422C3.64007 217.599 -148.958 259.27 -132.737 167.562Z" stroke="white" stroke-width="1.78583" stroke-miterlimit="10"/>
<path opacity="0.4" d="M-138.508 170.942C-99.0065 22.781 81.3334 -250.245 324.43 -7.11256C420.16 88.666 401.034 453.931 269.979 433.954C140.327 414.283 9.55692 489.952 8.34953 360.779C6.97821 209.153 -163.005 262.726 -138.508 170.942Z" stroke="white" stroke-width="1.82383" stroke-miterlimit="10"/>
</g>
</svg>
