<svg width="103" height="37" viewBox="0 0 103 37" fill="none" xmlns="http://www.w3.org/2000/svg">
<path d="M16.286 21.4077L12.1891 16.4651L0.473145 30.5676L4.37226 33.8476L12.1891 24.3428L19.9535 33.8476L23.8423 30.5676L20.472 26.6625V16.9101H16.286V21.4077Z" fill="white"/>
<path fill-rule="evenodd" clip-rule="evenodd" d="M18.4567 14.722C18.4567 14.722 24.1414 8.82428 24.1414 5.6847C24.1414 2.54513 21.5963 0 18.4567 0C15.3172 0 12.772 2.54513 12.772 5.6847C12.772 8.82428 18.4567 14.722 18.4567 14.722ZM18.3268 8.34888C19.8093 8.34888 21.011 7.14712 21.011 5.66467C21.011 4.18223 19.8093 2.98047 18.3268 2.98047C16.8444 2.98047 15.6426 4.18223 15.6426 5.66467C15.6426 7.14712 16.8444 8.34888 18.3268 8.34888Z" fill="white"/>
<rect x="31.5742" y="16.8984" width="3.7083" height="16.577" fill="white"/>
<rect x="87.3824" y="16.9053" width="3.75245" height="16.688" fill="white"/>
<rect x="51.3412" y="16.8984" width="3.7083" height="16.577" fill="white"/>
<rect x="42.7143" y="16.8984" width="3.7083" height="16.577" fill="white"/>
<rect x="98.8183" y="16.8975" width="3.70801" height="16.695" fill="white"/>
<rect x="62.8954" y="16.8984" width="3.7083" height="16.577" fill="white"/>
<rect x="45.3176" y="30.042" width="3.35756" height="6.88824" fill="white"/>
<rect x="48.6754" y="30.042" width="3.43349" height="16.9426" transform="rotate(90 48.6754 30.042)" fill="white"/>
<rect x="101.684" y="23.3845" width="3.60777" height="14.0074" transform="rotate(90 101.684 23.3845)" fill="white"/>
<path d="M62.9016 16.8984L55.003 28.1058L53.9858 30.7961L55.003 33.5483L62.9571 22.3133L62.9016 16.8984Z" fill="white"/>
<path fill-rule="evenodd" clip-rule="evenodd" d="M70.3017 21.8391H73.8502C74.0062 21.1367 74.8522 19.7475 76.9874 19.81C79.6564 19.888 80.0622 21.7611 80.0934 23.0566C78.4181 23.0358 74.8615 23.0379 74.0374 23.2127C73.0073 23.4312 69.4954 24.4614 69.5578 28.5195C69.6203 32.5777 73.179 33.7639 75.3642 33.8107C77.5493 33.8576 79.4535 32.765 80.4056 31.9377L80.607 33.4955H83.792V22.4194C83.792 20.4662 82.331 16.6696 76.9242 16.585C73.787 16.585 70.1551 18.4895 70.3017 21.8391ZM75.3102 30.6181C80.7428 30.8729 80.1058 26.124 80.1058 26.124H75.3102C74.0889 26.124 73.0988 27.13 73.0988 28.3711C73.0988 29.6121 74.0889 30.6181 75.3102 30.6181Z" fill="white"/>
</svg>
