<svg width="218" height="34" viewBox="0 0 218 34" fill="none" xmlns="http://www.w3.org/2000/svg">
<path d="M113.819 13.4016V1.30469H124.239V13.4016H121.506V3.52497H116.496V13.4016H113.819Z" fill="#02437F"/>
<path d="M126.239 33.468V21.3711H136.659V33.468H133.926V23.5914H128.916V33.468H126.239Z" fill="#02437F"/>
<path d="M104.807 9.35503C104.743 9.03525 102.109 3.90046 100.656 1.32617H104.055L106.714 7.57075L109.411 1.32617H112.33C111.689 2.74272 110.039 6.44028 108.562 9.89819C106.95 13.6683 104.935 13.6829 102.577 13.5186L102.587 11.0959H103.97C105.066 11.0959 105.016 10.3874 104.807 9.35503Z" fill="#02437F"/>
<path fill-rule="evenodd" clip-rule="evenodd" d="M14.6917 0L0 33.503H7.43356L9.17554 29.1492H22.6469L24.3889 33.503H31.9375L17.1887 0H14.6917ZM11.5996 23.3585L15.9536 12.5879L20.1917 23.3585H11.5996Z" fill="#02437F"/>
<path fill-rule="evenodd" clip-rule="evenodd" d="M47.6879 0L32.9962 33.503H40.4297L42.1717 29.1492H55.643L57.385 33.503H64.9336L50.1848 0H47.6879ZM44.5953 23.3585L48.9493 12.5879L53.1874 23.3585H44.5953Z" fill="#02437F"/>
<path fill-rule="evenodd" clip-rule="evenodd" d="M80.683 0L65.9913 33.503H73.4249L75.1669 29.1492H88.6382L90.3802 33.503H97.9288L83.18 0H80.683ZM77.5905 23.3585L81.9445 12.5879L86.1825 23.3585H77.5905Z" fill="#02437F"/>
<path fill-rule="evenodd" clip-rule="evenodd" d="M140.562 1.33301L135.267 13.4079H137.946L138.574 11.8387H143.429L144.057 13.4079H146.778L141.462 1.33301H140.562ZM139.448 9.75197L141.017 5.87012L142.544 9.75197H139.448Z" fill="#02437F"/>
<path fill-rule="evenodd" clip-rule="evenodd" d="M118.569 21.374L113.274 33.4489H115.953L116.581 31.8797H121.437L122.064 33.4489H124.785L119.469 21.374H118.569ZM117.455 29.794L119.024 25.9121L120.552 29.794H117.455Z" fill="#02437F"/>
<path fill-rule="evenodd" clip-rule="evenodd" d="M166.218 21.374L160.923 33.4489H163.602L164.229 31.8797H169.085L169.713 33.4489H172.433L167.118 21.374H166.218ZM165.103 29.794L166.672 25.9121L168.199 29.794H165.103Z" fill="#02437F"/>
<path d="M126.715 13.4054V1.27539H129.382V13.4054H126.715Z" fill="#02437F"/>
<path d="M171.998 13.4084V1.27832H174.852V13.4084H171.998Z" fill="#02437F"/>
<path d="M155.145 33.5031V21.373H157.962V33.5031H155.145Z" fill="#02437F"/>
<path d="M101.952 33.5031V21.373H104.77V33.5031H101.952Z" fill="#02437F"/>
<path d="M108.922 21.3818L104.681 26.5796L104.491 27.8645L109.304 33.4161H112.75L107.827 27.2902L112.23 21.3818H108.922Z" fill="#02437F"/>
<path d="M200.665 33.5011V21.3711H201.745L203.482 23.4134V33.5011H200.665Z" fill="#02437F"/>
<path d="M212.699 33.5027H209.881V27.9864L206.746 31.4969L203.351 28.1135L201.725 21.3684L206.746 27.1422L209.881 23.3892L211.29 21.3727H212.699V33.5027Z" fill="#02437F"/>
<path d="M151.265 24.121V21.373H161.853V24.121H151.265Z" fill="#02437F"/>
<path d="M182.438 13.4337V1.30371H185.292V13.4337H182.438Z" fill="#02437F"/>
<path d="M190.416 13.4337V1.30371H193.269V13.4337H190.416Z" fill="#02437F"/>
<path d="M195.697 13.4337V1.30371H198.55V8.11241L204.566 1.30371H205.296L204.846 4.92129L198.55 11.5243L196.78 13.4337H195.697Z" fill="#02437F"/>
<path d="M139.091 33.4477V21.3176H141.944V28.1263L147.959 21.3176H148.69L148.24 24.9352L141.944 31.5382L140.174 33.4477H139.091Z" fill="#02437F"/>
<path d="M206.7 13.4337H203.847V2.7078L205.273 1.30371H206.7V13.4337Z" fill="#02437F"/>
<path d="M150.096 33.4477H147.242V22.7217L148.669 21.3176H150.096V33.4477Z" fill="#02437F"/>
<path d="M209.017 13.4084V1.27832H211.87V13.4084H209.017Z" fill="#02437F"/>
<path d="M171.998 3.71917V1.27832H180.524V3.71917H171.998Z" fill="#02437F"/>
<path d="M209.017 3.71917V1.27832H217.543V3.71917H209.017Z" fill="#02437F"/>
<path d="M171.998 13.4064V10.9656H180.524V13.4064H171.998Z" fill="#02437F"/>
<path d="M209.017 13.4064V10.9656H217.543V13.4064H209.017Z" fill="#02437F"/>
<path d="M171.998 8.15178V5.71094H179.16V8.15178H171.998Z" fill="#02437F"/>
<path d="M184.024 8.28753V5.84668H191.186V8.28753H184.024Z" fill="#02437F"/>
<path d="M209.017 8.28557V5.84473H216.179V8.28557H209.017Z" fill="#02437F"/>
<path d="M166.906 13.4074V1.27734H169.573V13.4074H166.906Z" fill="#02437F"/>
<path d="M160.923 3.71819V1.27734H169.572V3.71819H160.923Z" fill="#02437F"/>
<path d="M160.801 9.01829V1.27734H163.327V9.01829C163.252 11.7032 162.075 13.3906 160.801 13.3906H158.325V11.093C158.842 11.1043 159.967 11.1475 160.275 10.7944C160.583 10.4413 160.801 9.47043 160.801 9.01829Z" fill="#02437F"/>
<path d="M181.219 33.5041V21.374H183.886V33.5041H181.219Z" fill="#02437F"/>
<path d="M175.235 23.8149V21.374H183.885V23.8149H175.235Z" fill="#02437F"/>
<path d="M175.114 29.115V21.374H177.64V29.115C177.565 31.7999 176.388 33.4873 175.114 33.4873H172.638V31.1897C173.155 31.201 174.28 31.2442 174.588 30.8911C174.896 30.5379 175.114 29.5671 175.114 29.115Z" fill="#02437F"/>
<path d="M148.268 13.4085V1.31152H150.821V13.4085H148.268Z" fill="#02437F"/>
<path d="M132.257 6.82669C132.972 6.82669 133.677 6.20859 133.677 5.28784C133.677 4.3671 132.972 3.749 132.257 3.749H129.11V1.27832H131.904C134.053 1.27832 135.795 3.07344 135.795 5.28784C135.795 7.50224 134.053 9.29737 131.904 9.29737H128.538V6.82669H132.257Z" fill="#02437F"/>
<path d="M154.44 11.2821C155.232 11.2821 155.793 10.6662 155.793 10.0066C155.793 9.34686 155.232 8.731 154.44 8.731H150.172V6.61328H154.44C156.356 6.61328 157.91 8.1325 157.91 10.0066C157.91 11.8806 156.356 13.3998 154.44 13.3998H149.841V11.2821H154.44Z" fill="#02437F"/>
<path fill-rule="evenodd" clip-rule="evenodd" d="M192.205 33.9998C195.694 33.9998 198.522 31.1719 198.522 27.6835C198.522 24.1951 195.694 21.3672 192.205 21.3672C188.717 21.3672 185.889 24.1951 185.889 27.6835C185.889 31.1719 188.717 33.9998 192.205 33.9998ZM192.205 31.4243C194.272 31.4243 195.948 29.7488 195.948 27.682C195.948 25.6151 194.272 23.9396 192.205 23.9396C190.139 23.9396 188.463 25.6151 188.463 27.682C188.463 29.7488 190.139 31.4243 192.205 31.4243Z" fill="#02437F"/>
<path fill-rule="evenodd" clip-rule="evenodd" d="M148.573 1.30859H153.221C153.221 1.30859 156.602 1.306 156.602 4.46265C156.602 7.88304 153.221 7.88304 153.221 7.88304H148.573V1.30859ZM150.637 3.38783H152.567C152.567 3.38783 153.971 3.38675 153.971 4.70258C153.971 6.12835 152.567 6.12835 152.567 6.12835H150.637V3.38783Z" fill="#02437F"/>
</svg>
