<svg width="36" height="34" viewBox="0 0 36 34" fill="none" xmlns="http://www.w3.org/2000/svg">
<path fill-rule="evenodd" clip-rule="evenodd" d="M4.72592 0V9.99194C6.24712 8.1782 8.07018 7.26427 10.1856 7.26427C11.2748 7.26427 12.2515 7.47126 13.1247 7.88512C14.0026 8.29472 14.6592 8.82153 15.1006 9.46061C15.5462 10.1043 15.8478 10.8109 16.0094 11.5895C16.172 12.364 16.253 13.5699 16.253 15.2037V25.8886H11.527V16.2658C11.527 14.3576 11.4412 13.1466 11.2613 12.6335C11.0813 12.1162 10.766 11.7108 10.3116 11.4094C9.85691 11.1034 9.28994 10.9501 8.6059 10.9501C7.82274 10.9501 7.12047 11.1482 6.50853 11.5355C5.88769 11.927 5.43737 12.5122 5.15389 13.2953C4.8656 14.0786 4.72139 15.2352 4.72619 16.7656L4.72139 25.8888H0V0H4.72592ZM23.337 0V9.99194C24.8578 8.1782 26.681 7.26427 28.7961 7.26427C29.8809 7.26427 30.8619 7.47126 31.7401 7.88512C32.613 8.29472 33.2702 8.82153 33.7109 9.46061C34.1565 10.1043 34.4581 10.8109 34.6203 11.5895C34.7823 12.364 34.8635 13.5699 34.8635 15.2037V25.8886H30.1418V16.2658C30.1418 14.3576 30.0522 13.1466 29.8719 12.6335C29.6918 12.1162 29.377 11.7108 28.9221 11.4094C28.4719 11.1034 27.9002 10.9501 27.2163 10.9501C26.4331 10.9501 25.7311 11.1482 25.1188 11.5355C24.5025 11.927 24.0523 12.5122 23.7641 13.2953C23.4806 14.0786 23.3368 15.2352 23.3368 16.7656V25.8888H18.6152V0H23.337ZM0.013434 33.9139V28.693H0.643876V30.8398H3.11013L3.10533 28.693H3.73577V33.9139H3.10533V31.452H0.643876V33.9139H0.013434ZM7.02588 32.6943L7.62918 32.7756C7.53419 33.1671 7.35913 33.4641 7.10238 33.6758C6.84576 33.8918 6.51676 33.9997 6.11675 33.9997C5.61243 33.9997 5.2164 33.8285 4.91989 33.4869C4.62708 33.1493 4.47821 32.6676 4.47821 32.0556C4.47821 31.4208 4.62708 30.9259 4.924 30.5749C5.22119 30.2239 5.61243 30.0485 6.08522 30.0485C6.54404 30.0485 6.91759 30.2194 7.21012 30.5614C7.50266 30.908 7.65112 31.3895 7.65112 32.0152L7.64632 32.1861H5.08123C5.10358 32.6003 5.21187 32.9198 5.40077 33.1405C5.59433 33.3608 5.83286 33.4733 6.12114 33.4733C6.33197 33.4733 6.51676 33.4104 6.66961 33.2846C6.81848 33.163 6.94007 32.9649 7.02561 32.6947M5.1129 31.6595H7.03466C7.00752 31.3442 6.93541 31.1013 6.81382 30.9437C6.62917 30.696 6.38653 30.5746 6.08947 30.5746C5.82381 30.5746 5.59899 30.669 5.41873 30.8671C5.23422 31.0652 5.13538 31.3311 5.1129 31.6595ZM10.5678 33.4462C10.3563 33.6488 10.1492 33.7927 9.94697 33.8739C9.74861 33.9594 9.53737 34 9.30789 34C8.92502 34 8.63715 33.8965 8.43427 33.694C8.2318 33.4914 8.13269 33.2303 8.12816 32.9154C8.12816 32.7308 8.1686 32.5598 8.24496 32.4114C8.32172 32.2582 8.42536 32.1321 8.54654 32.0422C8.67183 31.9462 8.81385 31.8744 8.96546 31.8305C9.07801 31.7945 9.24895 31.7675 9.48281 31.7361C9.95575 31.6729 10.2978 31.6006 10.5229 31.511C10.527 31.4256 10.527 31.3669 10.527 31.3446C10.527 31.0833 10.4684 30.9033 10.3606 30.7954C10.2121 30.6513 9.98714 30.5794 9.69872 30.5794C9.42441 30.5794 9.2214 30.629 9.0913 30.7369C8.96066 30.8404 8.86183 31.0297 8.80302 31.2954L8.2318 31.2097C8.28087 30.944 8.36655 30.7277 8.48828 30.5617C8.60507 30.395 8.77602 30.2689 9.0011 30.179C9.22606 30.0936 9.4824 30.0483 9.7796 30.0483C10.0724 30.0483 10.3108 30.0844 10.4952 30.1609C10.6798 30.2374 10.8153 30.3321 10.9005 30.4444C10.9863 30.5614 11.049 30.7055 11.0806 30.8855C11.0989 30.9936 11.1126 31.1916 11.1126 31.4751V32.3301C11.1126 32.9243 11.1212 33.3022 11.1484 33.4598C11.1703 33.6175 11.2249 33.7659 11.2968 33.9142H10.6887C10.6264 33.7793 10.59 33.6262 10.5671 33.4462M10.5226 32.015C10.3113 32.1095 9.9918 32.1904 9.57342 32.2582C9.32983 32.2939 9.15944 32.3388 9.06005 32.3883C8.9656 32.4334 8.88404 32.5054 8.8351 32.5956C8.77917 32.6862 8.7497 32.7907 8.74983 32.897C8.74983 33.0683 8.81275 33.2119 8.92955 33.3243C9.04703 33.4417 9.21756 33.4955 9.44251 33.4955C9.67199 33.4955 9.87048 33.4459 10.0458 33.338C10.217 33.2255 10.3471 33.0769 10.4285 32.8878C10.4915 32.7435 10.523 32.5321 10.523 32.2486V32.015H10.5226ZM14.2086 33.9143V33.437C13.9925 33.8108 13.6731 33.9997 13.2504 33.9997C12.9757 33.9997 12.724 33.919 12.494 33.7478C12.2645 33.5813 12.0848 33.3517 11.963 33.055C11.8324 32.7576 11.7743 32.4156 11.7743 32.0241C11.7743 31.6504 11.8282 31.304 11.9407 30.9978C12.0575 30.6918 12.2287 30.4579 12.4585 30.2911C12.6835 30.1292 12.9402 30.0479 13.2278 30.0479C13.4304 30.0479 13.615 30.0932 13.7772 30.192C13.9369 30.2853 14.0725 30.4149 14.1728 30.5705V28.6935H14.7495V33.9149H14.2087M12.3722 32.0237C12.3681 32.5098 12.463 32.8743 12.6475 33.1131C12.8367 33.3515 13.0523 33.4731 13.3044 33.4731C13.561 33.4731 13.7775 33.3563 13.9528 33.131C14.1325 32.897 14.2233 32.5506 14.2233 32.0778C14.2233 31.5603 14.1283 31.1823 13.948 30.9392C13.7681 30.7004 13.5432 30.5792 13.2775 30.5792C13.0212 30.5792 12.805 30.696 12.6291 30.9255C12.4586 31.1597 12.3683 31.524 12.3725 32.024L12.3722 32.0237ZM15.7305 33.9139V28.693H16.3561V30.8398H18.8222V28.693H19.4524V33.9139H18.822V31.452H16.3558V33.9139H15.7305ZM22.6435 33.9139V33.356C22.3779 33.7881 22.0138 33.9993 21.55 33.9993C21.3478 33.9993 21.1583 33.959 20.9829 33.8689C20.8069 33.7883 20.677 33.6757 20.5914 33.5495C20.5056 33.4189 20.4478 33.2615 20.4117 33.0724C20.3888 32.9464 20.3757 32.7483 20.3757 32.4739V30.1333H20.9602V32.2308C20.9602 32.5636 20.9743 32.7887 20.9962 32.9061C21.0323 33.077 21.1088 33.2075 21.226 33.302C21.3478 33.4008 21.4916 33.446 21.667 33.446C21.843 33.446 22.0089 33.3964 22.1618 33.2976C22.3103 33.2025 22.4239 33.0619 22.486 32.8969C22.5494 32.7257 22.5805 32.4829 22.5805 32.1587V30.1333H23.1613V33.9139H22.6435ZM24.0434 33.9139V30.1333H24.5656V30.6689C24.8175 30.2548 25.1867 30.048 25.6643 30.048C25.8665 30.048 26.0599 30.0884 26.2313 30.1696C26.4065 30.2502 26.537 30.3584 26.6224 30.489C26.7082 30.6238 26.7708 30.7814 26.8025 30.9658C26.8254 31.0826 26.8385 31.2899 26.8385 31.5869V33.9139H26.2535V31.6141C26.2535 31.3529 26.2311 31.1549 26.1863 31.029C26.1428 30.9019 26.0587 30.7928 25.9471 30.7182C25.8303 30.6418 25.6908 30.6015 25.5375 30.6015C25.2905 30.6015 25.0743 30.6867 24.8943 30.8623C24.7144 31.0335 24.6242 31.362 24.6286 31.8479L24.6241 33.9138H24.0433L24.0434 33.9139ZM28.9676 33.3379L29.053 33.9051C28.8913 33.9459 28.7425 33.9635 28.6117 33.9635C28.4009 33.9635 28.238 33.9278 28.1212 33.851C28.0044 33.779 27.9235 33.6846 27.8743 33.563C27.8291 33.4462 27.8066 33.1896 27.8066 32.807V30.6287H27.3741V30.1336H27.8068V29.1975L28.387 28.8102L28.3825 30.1335H28.9681V30.6286H28.3825V32.8432C28.3825 33.023 28.3918 33.1402 28.4142 33.194C28.4323 33.2436 28.4683 33.2884 28.5134 33.3201C28.5628 33.3472 28.6261 33.3652 28.7159 33.3652C28.7791 33.3652 28.8643 33.3558 28.9681 33.338L28.9676 33.3379ZM31.8617 32.6943L32.4602 32.7756C32.3657 33.1671 32.1904 33.4641 31.9338 33.6802C31.6771 33.8921 31.3481 33.9999 30.9529 33.9999C30.4482 33.9999 30.0478 33.8286 29.7554 33.487C29.4582 33.1494 29.3097 32.6677 29.3097 32.0558C29.3097 31.4209 29.4627 30.9261 29.7599 30.575C30.0572 30.2241 30.4439 30.0486 30.9167 30.0486C31.376 30.0486 31.7536 30.2195 32.0464 30.5616C32.3344 30.9081 32.4833 31.3897 32.4833 32.0153C32.4833 32.0511 32.4785 32.1098 32.4785 32.1863H29.9132C29.9355 32.6004 30.0437 32.9199 30.2327 33.1406C30.4263 33.3609 30.6648 33.4735 30.9531 33.4735C31.1639 33.4735 31.3487 33.4105 31.5015 33.2847C31.65 33.1631 31.772 32.965 31.8619 32.6948M29.9489 31.6596H31.8662C31.839 31.3443 31.7673 31.1014 31.6453 30.9439C31.4608 30.6962 31.218 30.5747 30.9257 30.5747C30.6557 30.5747 30.4308 30.6692 30.2504 30.8673C30.0659 31.0653 29.9672 31.3313 29.9489 31.6596ZM33.1537 33.9142V30.1337H33.68V30.7054C33.8108 30.4353 33.932 30.2597 34.0491 30.1742C34.1548 30.0923 34.2846 30.048 34.4182 30.0482C34.6208 30.0482 34.8191 30.1159 35.0215 30.2555L34.8193 30.8494C34.6795 30.755 34.5353 30.7099 34.3915 30.7099C34.2654 30.7099 34.1531 30.7506 34.0491 30.836C33.9506 30.9214 33.8737 31.0341 33.833 31.1869C33.7659 31.4119 33.7386 31.6641 33.7386 31.9342V33.9145H33.1535L33.1537 33.9142Z" fill="white"/>
</svg>
