<svg width="277" height="278" viewBox="0 0 277 278" fill="none" xmlns="http://www.w3.org/2000/svg">
<path d="M126.749 4.19243C126.856 6.52163 127.035 8.52833 127.179 8.67166C127.286 8.77916 128.791 8.77916 130.511 8.63583C134.274 8.34916 135.277 7.66831 135.205 5.51828C135.134 3.43992 134.13 2.68741 131.335 2.72324L129.042 2.75907L128.827 1.36155C128.612 0.143203 128.469 -0.000133514 127.573 -0.000133514H126.569L126.749 4.19243ZM132.518 4.62244C132.805 4.76577 132.948 5.30328 132.876 5.76912C132.805 6.4858 132.518 6.66497 131.156 6.84414C130.26 6.98747 129.436 7.0233 129.293 6.9158C129.114 6.84414 129.006 6.19913 129.006 5.51828C129.006 4.33576 129.042 4.29993 130.547 4.29993C131.371 4.29993 132.267 4.44327 132.518 4.62244Z" fill="#2F2F2F"/>
<path d="M117.898 0.967143C116.034 1.28965 114.458 1.54048 114.422 1.57632C114.35 1.61215 114.565 2.79467 114.852 4.15636C115.139 5.51804 115.389 6.8439 115.389 7.0589C115.389 7.73974 113.992 9.02976 113.562 8.74309C113.311 8.59976 113.239 8.92226 113.311 9.53144C113.454 10.7498 114.243 11.0006 115.784 10.3914C117.109 9.81811 117.575 8.24142 117.181 5.48221C117.038 4.33553 116.966 3.33218 117.038 3.26051C117.396 2.86634 120.621 2.6155 120.8 2.938C120.944 3.15301 121.159 4.15636 121.266 5.1597C121.804 9.20893 121.839 9.31643 122.95 9.31643C124.169 9.31643 124.169 9.53144 123.38 4.40719C122.699 -0.251208 123.273 0.10713 117.898 0.967143Z" fill="#2F2F2F"/>
<path d="M104.639 3.83389C102.776 4.29973 101.199 4.76557 101.127 4.83724C101.056 4.87307 101.414 5.91226 101.916 7.13061C102.417 8.31312 102.847 9.99732 102.847 10.8215C102.847 13.3299 103.098 13.4732 105.929 12.7565C111.268 11.4307 111.018 11.5382 110.803 10.5707C110.695 9.92565 110.48 9.71064 110.05 9.81815C109.728 9.92565 108.76 10.1765 107.864 10.3915C106.968 10.6065 105.965 10.8932 105.607 11.0007C105.069 11.144 104.962 11.0007 105.069 10.1765C105.177 9.2448 105.356 9.10147 107.434 8.63563C109.118 8.24146 109.656 7.95479 109.656 7.48895C109.656 6.52143 109.262 6.44976 106.825 7.05894C104.89 7.56061 104.532 7.56061 104.245 7.13061C103.636 6.12726 103.958 5.84059 106.646 5.23141C108.724 4.72974 109.298 4.4789 109.154 4.04889C109.047 3.76222 108.939 3.36805 108.939 3.18888C108.939 2.75888 108.545 2.79471 104.639 3.83389Z" fill="#2F2F2F"/>
<path d="M169.319 7.70423C168.746 9.96176 168.352 11.861 168.459 11.9685C168.531 12.0401 169.033 12.2193 169.534 12.3626C170.43 12.5776 170.466 12.506 171.111 9.71092C172.007 5.80503 171.935 5.8767 174.157 6.37837C176.199 6.84421 176.486 6.77255 176.773 5.7692C176.916 5.19586 176.522 4.98085 174.157 4.33584C172.616 3.94167 171.147 3.58333 170.896 3.58333C170.538 3.58333 170.036 4.90919 169.319 7.70423Z" fill="#2F2F2F"/>
<path d="M93.7098 6.77243C89.8397 8.09829 89.2305 8.56413 89.9114 9.63914C90.1622 10.0333 90.4489 10.0333 91.3806 9.71081C92.0256 9.49581 92.7781 9.31664 93.0289 9.31664C93.2798 9.31664 93.8889 10.6425 94.4623 12.255C94.9639 13.9034 95.4656 15.3009 95.5373 15.3367C95.5731 15.4084 96.1106 15.3726 96.684 15.2292L97.759 15.0142L96.7198 11.9325C96.1465 10.2125 95.6806 8.70746 95.6806 8.56413C95.6806 8.42079 96.2898 8.09829 97.0423 7.88328C97.759 7.63245 98.4757 7.34577 98.5832 7.20244C98.9057 6.91577 98.2965 5.37491 97.9382 5.41075C97.7948 5.41075 95.8956 6.01992 93.7098 6.77243Z" fill="#2F2F2F"/>
<path d="M179.389 8.31324C178.529 11.4666 177.919 12.2908 176.629 12.1116C175.841 12.0041 175.554 12.1116 175.375 12.6491C174.909 14.1183 177.669 15.0858 179.03 13.9392C179.747 13.33 181.324 10.1408 181.324 9.20908C181.324 8.88658 181.431 8.59991 181.539 8.59991C182.04 8.59991 185.265 9.85409 185.265 10.0333C185.265 10.1766 184.799 11.6458 184.226 13.33L183.187 16.4475L184.226 16.8059C185.014 17.0925 185.337 17.0567 185.444 16.7342C186.304 14.4408 188.096 8.81491 187.989 8.70741C187.845 8.56407 180.535 6.09154 180.249 6.09154C180.105 6.09154 179.747 7.09488 179.389 8.31324Z" fill="#2F2F2F"/>
<path d="M83.3896 11.0006C82.1354 11.5381 82.0638 11.6098 82.0638 13.2582C82.0638 14.1898 81.9563 16.4115 81.8488 18.2032L81.5979 21.4641L82.7446 21.0341C83.6046 20.7116 83.8555 20.4249 83.8555 19.6366C83.8555 18.7407 84.1063 18.5257 85.8622 17.7374C88.2272 16.6982 88.4422 16.6624 89.2305 17.3791C89.6964 17.8091 90.0547 17.8449 90.8072 17.5941C91.3089 17.3791 91.7389 17.0924 91.7031 16.949C91.7031 16.7699 90.1264 15.2649 88.1914 13.5807L84.7513 10.4631L83.3896 11.0006ZM85.6113 14.1182L86.8297 15.3724L85.468 15.9099C84.7155 16.2324 84.0705 16.4832 83.9988 16.4832C83.9271 16.4832 83.8555 15.659 83.8555 14.6915C83.8555 13.6882 83.9988 12.8998 84.1421 12.8998C84.2855 12.8998 84.9663 13.4373 85.6113 14.1182Z" fill="#2F2F2F"/>
<path d="M191.357 14.5838C189.386 16.2679 187.773 17.773 187.773 17.9163C187.773 18.0955 188.239 18.3821 188.813 18.5613C189.637 18.848 189.959 18.8122 190.497 18.2746C191.142 17.6655 191.249 17.6655 193.435 18.6688C195.406 19.5647 195.657 19.7797 195.657 20.7113C195.657 21.4639 195.908 21.858 196.553 22.1447L197.449 22.5747V17.6296V12.6846L196.194 12.0754L194.976 11.502L191.357 14.5838ZM195.657 15.7663C195.657 16.7338 195.585 17.558 195.478 17.558C195.406 17.558 194.761 17.2713 194.044 16.9488L192.79 16.3396L193.937 15.1571C194.546 14.5121 195.227 13.9746 195.37 13.9746C195.514 13.9746 195.657 14.7629 195.657 15.7663Z" fill="#2F2F2F"/>
<path d="M73.5711 15.4087C72.2452 16.197 72.1736 16.7345 72.7111 20.9629C72.8902 22.1454 72.9619 23.1846 72.8902 23.2563C72.8186 23.3279 71.5286 22.4679 70.0235 21.3571C67.1568 19.1712 66.5835 19.0637 64.971 20.3179L64.1826 20.9629L66.3326 24.7971L68.5185 28.6313L69.3785 28.0938C69.8444 27.7713 70.2385 27.4488 70.2385 27.413C70.2385 27.3413 69.5577 26.1588 68.7694 24.7255C67.9452 23.3279 67.336 22.1096 67.4077 22.0379C67.4793 21.9662 68.7335 22.7904 70.2027 23.8654C73.0336 25.9438 73.2844 26.0513 74.3236 25.263C74.9328 24.7971 74.9686 24.4746 74.6819 21.1421C74.5028 19.1712 74.3953 17.5587 74.4311 17.5587C74.4669 17.5587 75.2553 18.8487 76.187 20.4254C77.6203 22.9338 77.907 23.2563 78.4803 22.9338C78.8745 22.7188 79.2328 22.4321 79.3403 22.2888C79.5553 21.9662 75.5778 14.9786 75.0761 14.7995C74.8969 14.7636 74.1803 15.0145 73.5711 15.4087Z" fill="#2F2F2F"/>
<path d="M203.182 17.7737C202.788 18.6696 202.466 19.4938 202.466 19.6013C202.466 19.7088 201.821 20.6046 201.032 21.5721C200.244 22.5755 199.67 23.5072 199.778 23.6505C200.208 24.3313 205.798 27.2339 206.73 27.2339C208.271 27.2339 209.023 26.3022 208.808 24.6897C208.665 23.5788 208.772 23.328 209.489 22.9697C210.456 22.5397 210.994 20.963 210.456 20.1029C210.098 19.5296 204.687 16.1254 204.15 16.1254C204.006 16.1254 203.541 16.8779 203.182 17.7737ZM206.73 19.3504C208.306 20.1388 208.736 20.8913 208.02 21.5005C206.981 22.3605 204.365 20.6763 204.795 19.4221C205.081 18.4546 205.046 18.4546 206.73 19.3504ZM205.583 22.7547C207.196 23.7222 207.482 24.3313 206.586 25.0839C206.121 25.478 205.762 25.4064 204.508 24.7255C202.358 23.543 202.251 23.3997 203.003 22.5755C203.827 21.6796 203.72 21.6796 205.583 22.7547Z" fill="#2F2F2F"/>
<path d="M212.571 26.23L210.027 29.8493L210.815 30.4943C211.603 31.1393 211.603 31.1393 212.571 30.0284L213.538 28.9176L215.294 30.0643C217.408 31.3901 218.662 31.4618 219.845 30.2793C220.813 29.3118 221.028 27.4484 220.275 26.4809C219.917 26.015 216.62 23.4708 215.509 22.8258C215.294 22.7183 214.04 24.1517 212.571 26.23ZM217.408 26.3734C219.164 27.6992 218.913 29.3834 217.05 28.8817C216.62 28.7742 215.903 28.3442 215.437 27.9501C214.649 27.3051 214.649 27.2334 215.222 26.3375C215.545 25.8359 215.903 25.4417 216.011 25.4417C216.118 25.4417 216.727 25.8359 217.408 26.3734Z" fill="#2F2F2F"/>
<path d="M59.2376 24.2951C58.4851 24.8684 58.4134 25.2626 58.3417 29.0251L58.2342 33.1102L56.335 30.5301C54.6867 28.3443 54.3283 28.0218 53.755 28.3084C53.3608 28.5234 53.0025 28.8101 52.895 28.9893C52.7158 29.276 57.5534 36.1919 57.9476 36.1919C58.0551 36.1919 58.6284 35.8336 59.2018 35.4035L60.3126 34.651L60.0976 30.566C59.9901 28.3443 59.9543 26.5168 60.0259 26.5168C60.0976 26.5168 61.0293 27.6993 62.1043 29.1685C64.0035 31.7485 64.0752 31.8202 64.8277 31.2827C65.2577 30.996 65.5443 30.5301 65.4368 30.2793C65.0785 29.276 60.7784 23.65 60.4201 23.65C60.2051 23.65 59.6676 23.9367 59.2376 24.2951Z" fill="#2F2F2F"/>
<path d="M223.249 31.3542C222.64 32.4292 221.422 33.8984 220.526 34.6151C219.666 35.3317 218.949 36.0484 218.949 36.1918C218.949 36.5143 224.575 41.2085 224.969 41.2085C225.148 41.2085 225.507 40.9577 225.758 40.6352C226.152 40.1693 226.008 39.9185 224.826 38.951C221.529 36.2276 221.673 36.4426 222.425 35.7617C223.034 35.1884 223.178 35.2601 225.005 36.7651C226.797 38.2343 227.012 38.3418 227.514 37.8043C228.051 37.3026 227.908 37.0876 226.152 35.5467C224.396 33.9701 224.253 33.7551 224.647 33.0384C225.077 32.2142 225.113 32.2142 227.227 34.0776C228.983 35.5826 229.449 35.8334 229.879 35.4751C230.918 34.6151 230.846 34.5434 225.399 30.1717L224.396 29.3833L223.249 31.3542Z" fill="#2F2F2F"/>
<path d="M48.3083 32.5005C47.7349 33.038 47.7708 33.1813 48.7741 34.328L49.885 35.5822L48.3441 37.123C47.4841 37.9831 46.6241 38.6997 46.4091 38.6997C46.2299 38.6997 45.6207 38.1981 45.1191 37.553L44.1874 36.4064L43.2557 37.123L42.3599 37.8397L45.1549 41.0289C46.7316 42.7848 48.1291 44.2898 48.3083 44.3615C48.4516 44.3973 48.9175 44.1106 49.2758 43.7165C49.9208 42.9998 49.9208 42.964 48.9891 41.9964C48.4875 41.4589 48.0216 40.8498 47.9499 40.6706C47.8783 40.4556 48.6308 39.5956 49.5625 38.6997L51.3183 37.123L52.465 38.4847L53.5759 39.8464L54.4717 39.1297L55.3317 38.4131L53.2175 36.0122C52.035 34.6863 50.7808 33.2171 50.4225 32.7513C49.6341 31.748 49.0966 31.6763 48.3083 32.5005Z" fill="#2F2F2F"/>
<path d="M233.139 39.2378C232.602 39.9187 231.455 40.8862 230.559 41.4237C229.234 42.212 228.875 42.2837 228.409 41.8895C227.944 41.5312 227.657 41.6387 226.546 42.7495L225.22 44.0754L226.009 44.8637C226.761 45.5804 226.833 45.6162 227.478 45.0429C228.087 44.4696 228.266 44.5771 230.739 47.0854C233.104 49.4863 233.319 49.773 232.889 50.4538C232.53 51.063 232.53 51.278 232.889 51.7438C233.605 52.568 234.071 52.4605 235.361 51.1347C236.436 50.0596 236.472 49.8805 235.97 49.4505C235.469 49.0205 235.648 48.6979 237.726 46.6196C239.016 45.2937 240.091 44.0754 240.091 43.8962C240.091 43.502 234.68 37.9836 234.286 37.9836C234.179 37.9836 233.641 38.557 233.139 39.2378ZM235.612 45.5087L233.856 47.3004L232.136 45.6162L230.416 43.932L231.563 43.3229C232.208 42.9645 233.139 42.2837 233.641 41.782L234.501 40.8145L235.935 42.2837L237.368 43.717L235.612 45.5087Z" fill="#2F2F2F"/>
<path d="M38.5256 41.9261L37.5222 43.0011L38.3106 46.6203C38.7764 48.5912 39.0273 50.3112 38.9198 50.4545C38.7764 50.562 37.7372 49.702 36.5547 48.5553L34.4047 46.4411L33.5805 47.2653L32.7922 48.0536L36.0172 51.0637C37.8089 52.7479 39.3139 54.0737 39.4214 54.0737C39.5289 54.0737 39.9948 53.6079 40.4248 52.9987L41.2848 51.9595L40.4965 48.3403C40.0664 46.3695 39.8156 44.6494 39.9231 44.5061C40.0664 44.3986 41.1056 45.2586 42.2881 46.4053C44.3665 48.4836 44.4382 48.4836 45.1549 47.8386C45.549 47.4803 45.8715 47.0861 45.8715 46.9428C45.8715 46.7995 44.4382 45.3661 42.6823 43.7894L39.5289 40.8869L38.5256 41.9261Z" fill="#2F2F2F"/>
<path d="M28.9938 52.927C28.4921 53.5004 27.4888 54.6829 26.7721 55.5787L25.4821 57.2629L28.9938 59.9504C32.3622 62.5305 32.5414 62.638 33.1147 62.0288C33.9031 61.1688 33.8314 60.8821 32.7205 59.9863L31.7172 59.1979L32.8997 57.5854C34.9781 54.6829 34.1539 51.9595 31.2514 51.9595C30.2122 51.9595 29.6747 52.2103 28.9938 52.927ZM32.0755 54.7187C32.183 55.0412 31.8605 55.9012 31.323 56.6537C30.5705 57.7646 30.248 57.9796 29.7822 57.6929C28.313 56.9404 28.2771 56.4387 29.5313 55.077C30.7855 53.7154 31.6097 53.6079 32.0755 54.7187Z" fill="#2F2F2F"/>
<path d="M20.8955 64.142C19.6413 66.1128 18.6021 67.8687 18.5663 68.0479C18.4946 68.227 20.1071 69.4454 22.1138 70.7354C25.7689 73.0646 25.8047 73.0646 26.3422 72.2763C26.6289 71.8462 26.8797 71.4162 26.8797 71.2729C26.8797 71.1296 25.8047 70.3771 24.4789 69.5529C23.1172 68.7645 21.8271 67.9404 21.5763 67.7612C21.1821 67.5462 21.3613 67.0087 22.4005 65.432L23.6905 63.3895L25.0164 64.1778C25.733 64.6436 27.0589 65.4678 27.9189 66.0412L29.4956 67.1162L30.1406 66.2562C30.4631 65.7903 30.7139 65.3245 30.6423 65.217C30.4989 64.9661 23.5113 60.5586 23.2605 60.5586C23.1888 60.5586 22.1138 62.1711 20.8955 64.142Z" fill="#2F2F2F"/>
<path d="M255.536 68.2637C254.676 68.9445 253.027 69.8404 251.88 70.2704C250.698 70.7004 249.766 71.0946 249.766 71.1304C249.766 71.3812 252.812 76.5772 253.278 77.1147C254.138 78.1538 256.36 77.9747 257.256 76.828C258.223 75.6096 258.223 75.3946 256.933 72.8863C256.001 70.9871 255.93 70.7362 256.431 70.2346C256.933 69.7687 257.041 69.7687 257.506 70.4137C257.829 70.8079 258.474 71.8829 258.94 72.8146C259.8 74.4988 260.266 74.7855 261.126 74.248C261.448 74.0688 261.018 72.9938 259.656 70.5929C258.617 68.7654 257.614 67.1887 257.435 67.1528C257.256 67.0812 256.396 67.6187 255.536 68.2637ZM255.428 73.2804C256.109 74.678 256.145 74.9288 255.643 75.3946C254.891 76.183 254.21 75.753 253.206 73.9613L252.31 72.3488L253.099 72.0263C254.425 71.4887 254.604 71.5962 255.428 73.2804Z" fill="#2F2F2F"/>
<path d="M13.8003 76.6836C12.8327 78.6544 12.1161 80.3028 12.2236 80.4103C12.2952 80.482 13.2269 80.9836 14.3019 81.5211C16.7028 82.7037 17.9212 83.922 17.7062 84.8179C17.5628 85.3195 17.8853 85.642 19.1037 86.2512L20.6804 87.0396L21.1462 86.072C21.3612 85.5345 21.4329 85.0687 21.2537 85.0329C19.9995 84.567 20.0354 84.2803 21.6837 80.9478C22.6154 79.0844 23.4396 77.5436 23.4754 77.4719C23.5471 77.4002 23.9054 77.5077 24.3354 77.7227C24.9088 78.0453 25.1238 78.0094 25.4463 77.4361C26.0196 76.3252 25.9121 76.1461 24.2637 75.3577C22.7229 74.6052 22.6871 74.6052 22.2929 75.286C21.8629 75.9311 21.7195 75.8952 18.9962 74.5335C17.4195 73.7452 16.022 73.1002 15.8428 73.1002C15.6995 73.1002 14.7678 74.7127 13.8003 76.6836ZM20.7879 78.1169C20.7879 78.3319 20.3579 79.2994 19.8562 80.3028L18.9603 82.1303L18.172 81.4136C17.742 81.0195 16.8103 80.4103 16.1295 80.0878C15.4486 79.7294 14.8394 79.4069 14.7678 79.3711C14.6961 79.2994 15.0544 78.4394 15.592 77.4361L16.4878 75.6085L18.6378 76.6836C19.8203 77.2927 20.7879 77.9377 20.7879 78.1169Z" fill="#2F2F2F"/>
<path d="M261.412 80.482C258.653 81.8437 257.686 81.9154 257.112 80.7687C256.826 80.1595 256.611 80.0878 255.93 80.3745C254.927 80.8403 254.927 81.7004 255.894 82.9187C256.862 84.1371 258.582 84.1371 261.197 82.9545C262.272 82.4529 263.133 82.0945 263.168 82.1304C263.204 82.202 263.598 83.0262 264.028 83.9937C264.494 84.9254 264.817 85.7854 264.745 85.8212C264.673 85.8571 263.24 86.5021 261.52 87.2546C258.223 88.6521 258.223 88.6521 259.298 90.5872C259.298 90.623 261.09 89.8705 263.24 88.9388C266.429 87.5054 267.146 87.0396 267.074 86.4663C267.038 86.0721 266.322 84.3162 265.462 82.5245L263.921 79.2636L261.412 80.482Z" fill="#2F2F2F"/>
<path d="M8.46092 88.7245C7.74424 90.6237 7.1709 92.3078 7.1709 92.4512C7.1709 92.5945 8.13841 92.917 9.35676 93.132C10.5393 93.3829 12.331 94.0637 13.3343 94.637C15.2694 95.7837 15.4485 95.7479 16.0577 94.0637C16.2369 93.4545 16.846 91.9137 17.3119 90.6237L18.2436 88.2586L17.3835 87.8644C16.5952 87.5061 16.5235 87.5778 15.556 90.1578C15.0543 91.627 14.5168 92.8095 14.4452 92.8095C14.3735 92.8095 13.9793 92.6303 13.621 92.4512C12.9402 92.0928 12.9402 92.0212 13.8002 89.692C14.5168 87.8286 14.6243 87.2553 14.266 87.0044C13.4777 86.5028 13.1193 86.8969 12.2235 89.1545C11.3635 91.3403 11.041 91.6628 10.1093 91.0537C9.7151 90.8387 9.8226 90.3011 10.5751 88.4736C11.5426 86.0369 11.5426 85.2844 10.4676 85.2844C9.93011 85.2844 9.5001 86.0369 8.46092 88.7245Z" fill="#2F2F2F"/>
<path d="M263.67 92.308C259.764 94.4222 261.914 102.126 266.357 102.126C267.898 102.126 269.797 101.087 270.371 99.9406C271.625 97.5756 270.586 93.6338 268.4 92.3438C267.146 91.5913 264.96 91.5913 263.67 92.308ZM267.97 94.7089C269.045 95.8555 269.332 97.6114 268.651 98.6864C267.97 99.7256 266.25 100.191 265.175 99.6181C264.171 99.0806 263.311 97.0022 263.598 95.8555C264.064 93.9205 266.608 93.2755 267.97 94.7089Z" fill="#2F2F2F"/>
<path d="M5.95265 97.5038C5.45098 98.113 5.02097 98.7222 5.02097 98.8297C5.02097 98.973 4.69847 100.156 4.34013 101.446L3.65929 103.846L7.70851 104.993C9.93021 105.638 11.9369 106.068 12.1161 105.925C12.6536 105.602 12.9044 104.241 12.4386 104.097C12.1877 103.99 11.5786 103.775 11.0411 103.596L10.0735 103.237L10.6469 101.266C11.2919 98.9372 10.9336 97.468 9.46437 96.7871C7.95935 96.1063 6.956 96.3213 5.95265 97.5038ZM8.74769 99.0805C9.1777 99.5463 9.21353 99.8689 8.81936 101.159C8.38936 102.664 8.06685 102.807 6.526 102.306C5.98849 102.126 6.27516 100.586 7.02767 99.3313C7.63685 98.3997 7.99518 98.328 8.74769 99.0805Z" fill="#2F2F2F"/>
<path d="M271.804 104.097C271.625 104.169 269.869 104.599 267.97 105.029C264.387 105.817 263.957 106.14 264.781 107.466C265.032 107.86 265.533 107.824 267.719 107.358C269.188 107.036 270.622 106.677 270.944 106.57C271.41 106.426 271.661 106.856 272.055 108.469C272.521 110.332 272.664 110.547 273.417 110.44C273.883 110.404 274.313 110.296 274.384 110.225C274.456 110.153 274.313 109.15 274.026 108.003C273.739 106.821 273.381 105.459 273.273 104.885C273.058 103.99 272.7 103.775 271.804 104.097Z" fill="#2F2F2F"/>
<path d="M1.83177 112.196C1.40176 114.597 1.11509 116.603 1.18676 116.711C1.50926 116.997 9.07021 118.287 9.53605 118.108C9.82272 118.001 10.0377 117.535 10.0377 117.069C10.0377 116.317 9.82272 116.173 8.60437 115.958C7.81602 115.851 6.34683 115.564 5.34348 115.349L3.51596 114.955L3.73096 112.948C3.8743 111.837 4.12513 110.762 4.3043 110.583C4.48347 110.404 5.84516 110.511 7.70852 110.87C9.42854 111.228 10.8619 111.443 10.9336 111.371C11.1127 111.192 11.5786 109.293 11.4352 109.293C11.3636 109.293 9.64355 108.971 7.60102 108.576C5.59432 108.182 3.62346 107.86 3.26512 107.86C2.72761 107.86 2.51261 108.576 1.83177 112.196Z" fill="#2F2F2F"/>
<path d="M272.521 113.987C271.338 114.345 269.439 114.668 268.292 114.668C266.465 114.668 266.214 114.739 266.393 115.277C266.465 115.635 266.752 117.427 267.002 119.219C267.432 122.372 267.504 122.551 268.328 122.551C269.188 122.551 269.188 122.515 268.973 120.294C268.83 119.075 268.687 117.75 268.651 117.355C268.615 116.854 268.83 116.603 269.367 116.531C270.227 116.388 270.371 116.746 270.729 119.577C270.944 121.297 271.052 121.476 271.84 121.476C272.664 121.476 272.7 121.405 272.449 119.935C271.983 117.14 272.091 116.28 272.951 116.173C273.596 116.065 273.739 116.28 273.954 117.606C274.456 121.046 274.599 121.476 274.993 121.476C276.212 121.44 276.319 120.975 275.71 117.069C275.387 114.954 274.993 113.234 274.886 113.27C274.778 113.27 273.703 113.593 272.521 113.987Z" fill="#2F2F2F"/>
<path d="M270.657 125.311L268.042 125.454V126.601C268.042 127.748 268.077 127.748 269.439 127.64L270.801 127.497L271.052 129.718C271.231 131.367 271.517 132.155 272.162 132.8C273.309 133.947 274.957 133.947 276.104 132.764C276.892 132.012 277 131.582 277 129.288C277 127.855 276.892 126.314 276.785 125.848C276.534 124.988 276.928 125.024 270.657 125.311ZM275.208 128.966C275.208 130.793 274.635 131.689 273.667 131.295C272.592 130.901 272.306 127.712 273.345 127.461C275.065 126.995 275.208 127.138 275.208 128.966Z" fill="#2F2F2F"/>
<path d="M0.756743 148.854C-0.0674359 149.714 -0.10327 149.929 0.111733 153.046C0.255069 154.874 0.398404 156.415 0.470072 156.451C0.54174 156.522 2.54844 156.379 4.94931 156.164C8.71186 155.806 9.32104 155.662 9.32104 155.125C9.32104 153.799 8.9627 153.512 7.56518 153.656L6.20349 153.799L5.98849 151.9C5.66598 149.32 4.80597 148.209 3.01428 148.065C1.86759 147.994 1.43759 148.137 0.756743 148.854ZM3.94596 150.825C4.12513 151.219 4.3043 152.115 4.3043 152.796C4.3043 154.014 4.23263 154.086 3.05011 154.086H1.79592V152.366C1.79592 151.398 1.90343 150.502 2.04676 150.395C2.5126 149.893 3.58762 150.144 3.94596 150.825Z" fill="#2F2F2F"/>
<path d="M8.3177 159.031C7.95936 159.281 7.9952 159.855 8.4252 161.933C8.71187 163.366 8.96271 164.585 8.96271 164.692C8.96271 164.764 8.56854 164.836 8.1027 164.836C7.20685 164.836 7.06352 164.585 6.63351 162.327C6.23934 160.213 6.06017 159.819 5.55849 159.819C4.73432 159.819 4.62681 160.464 5.05682 162.721C5.41516 164.549 5.41516 164.943 4.98515 165.23C3.91014 165.911 3.62347 165.516 3.19346 162.865C2.79929 160.392 2.69179 160.177 1.93927 160.177C0.900093 160.177 0.900093 160.356 1.6526 164.441C2.40511 168.777 2.22595 168.526 4.34014 167.738C5.34349 167.344 7.27852 166.914 8.64021 166.771C10.0019 166.627 11.1127 166.52 11.1127 166.484C11.1127 166.484 10.7902 164.764 10.3961 162.686C10.0019 160.607 9.67939 158.887 9.67939 158.851C9.67939 158.636 8.74771 158.78 8.3177 159.031Z" fill="#2F2F2F"/>
<circle cx="3" cy="133" r="2" fill="#2F2F2F"/>
<circle cx="152" cy="4.99951" r="2" fill="#2F2F2F"/>
<circle cx="246" cy="58.9995" r="2" fill="#2F2F2F"/>
<circle cx="272" cy="149" r="2" fill="#2F2F2F"/>
<circle cx="125" cy="273" r="2" fill="#2F2F2F"/>
<circle cx="33.0001" cy="223" r="2" fill="#2F2F2F"/>
<path d="M266.106 163.617C265.641 164.872 265.927 165.087 268.937 165.732C270.622 166.09 272.091 166.52 272.198 166.699C272.342 166.914 272.234 167.989 271.983 169.172C271.589 171.035 271.446 171.25 270.765 171.107C264.064 169.566 264.566 169.602 264.386 170.892L264.243 171.895L268.507 172.863C270.837 173.4 272.807 173.794 272.879 173.723C273.202 173.364 274.814 165.051 274.599 164.836C274.312 164.585 267.504 163.044 266.751 163.044C266.501 163.044 266.214 163.295 266.106 163.617Z" fill="#2F2F2F"/>
<path d="M3.65927 171.25C3.2651 171.501 3.30093 172.074 3.98178 174.547C4.41178 176.195 4.80595 177.593 4.84179 177.664C4.87762 177.7 6.70515 177.27 8.92685 176.661C11.1127 176.088 13.0119 175.586 13.0836 175.586C13.3702 175.586 13.2627 174.368 12.9402 173.866C12.7252 173.508 12.0444 173.544 9.53603 174.189C7.816 174.619 6.34681 174.869 6.23931 174.762C6.13181 174.654 5.84514 173.794 5.5943 172.827C5.16429 171.107 4.55512 170.641 3.65927 171.25Z" fill="#2F2F2F"/>
<path d="M262.882 176.016C262.559 177.27 262.595 177.341 263.957 177.592C265.139 177.807 265.211 177.915 264.996 178.775C264.888 179.277 264.673 180.531 264.566 181.534C264.422 183.111 264.494 183.505 265.139 184.15C266.035 185.046 267.898 185.153 269.009 184.365C269.869 183.756 271.876 178.202 271.41 177.736C271.052 177.413 264.207 175.227 263.527 175.227C263.312 175.227 263.025 175.586 262.882 176.016ZM268.758 179.169C269.582 179.671 268.507 182.537 267.397 182.681C266.357 182.824 266.035 181.964 266.572 180.208C267.002 178.775 267.647 178.452 268.758 179.169Z" fill="#2F2F2F"/>
<path d="M8.64018 180.459C7.31433 181.57 6.81265 183.254 7.17099 185.261C7.9235 189.453 12.1519 191.209 15.1261 188.522C17.2403 186.623 16.7386 182.322 14.1228 180.28C12.6894 179.169 10.0735 179.241 8.64018 180.459ZM13.3703 182.322C15.0186 184.114 14.7678 186.408 12.8327 187.339C11.5786 187.913 10.2527 187.411 9.50019 186.013C8.78352 184.58 8.81935 183.756 9.7152 182.609C10.5752 181.498 12.4744 181.319 13.3703 182.322Z" fill="#2F2F2F"/>
<path d="M258.366 188.879C257.112 191.854 256.933 192.57 257.327 192.821C258.295 193.43 258.617 193.108 259.585 190.635C260.122 189.238 260.696 188.127 260.803 188.127C260.946 188.127 261.305 188.342 261.627 188.593C262.165 188.987 262.129 189.238 261.305 191.28C260.516 193.215 260.445 193.609 260.875 193.896C261.735 194.398 261.806 194.326 262.81 191.925C263.67 189.918 263.885 189.668 264.637 189.847C265.139 189.918 265.533 190.062 265.533 190.098C265.533 190.169 265.067 191.316 264.494 192.678C263.526 194.899 263.455 195.15 263.992 195.544C264.315 195.795 264.709 196.01 264.852 196.01C265.031 196.01 268.041 189.13 268.041 188.7C268.041 188.628 267.181 188.378 266.178 188.127C265.139 187.876 263.347 187.159 262.201 186.478C261.054 185.798 260.05 185.26 259.979 185.26C259.943 185.26 259.19 186.873 258.366 188.879Z" fill="#2F2F2F"/>
<path d="M14.4811 192.534L10.8619 194.398L12.7253 198.196L14.5886 201.995L16.3445 200.955C17.312 200.418 18.6737 199.773 19.3545 199.594C20.4654 199.271 20.6804 199.307 21.3254 200.095C21.8987 200.776 22.1854 200.92 22.6871 200.633C23.5113 200.167 23.4754 199.2 22.5437 198.017C21.6121 196.799 20.1787 196.799 17.6345 197.981C16.5595 198.483 15.592 198.877 15.4486 198.877C15.1978 198.877 13.5136 195.616 13.6928 195.473C13.7645 195.437 15.1261 194.72 16.7745 193.896C18.387 193.072 19.7129 192.319 19.7129 192.212C19.7129 191.674 18.9245 190.635 18.5304 190.671C18.2795 190.671 16.452 191.495 14.4811 192.534Z" fill="#2F2F2F"/>
<path d="M253.744 194.829C253.314 195.76 253.493 196.083 254.568 196.477C254.747 196.549 254.066 198.161 253.027 200.061C251.271 203.286 251.092 203.501 250.411 203.142C249.766 202.82 249.551 202.856 249.157 203.393C248.44 204.361 248.548 204.54 250.34 205.4C251.88 206.188 251.988 206.188 252.346 205.579C252.669 204.97 252.92 205.077 255.679 206.546L258.689 208.195L259.549 206.654C261.376 203.429 262.666 201.028 262.666 200.849C262.666 200.777 261.986 200.347 261.161 199.917C258.402 198.52 257.22 197.445 257.399 196.477C257.542 195.76 257.291 195.474 255.858 194.757L254.174 193.897L253.744 194.829ZM259.513 201.458C260.015 201.637 259.621 202.784 258.546 204.504L258.044 205.256L255.965 204.181C254.819 203.572 253.815 203.035 253.744 202.963C253.672 202.891 254.138 201.96 254.747 200.885L255.894 198.914L257.471 200.096C258.331 200.777 259.262 201.386 259.513 201.458Z" fill="#2F2F2F"/>
<path d="M21.6837 203.715C20.5012 204.862 20.5729 205.722 21.9346 208.123C23.0096 210.022 23.0096 210.13 22.4004 210.596C21.7912 211.026 21.612 210.882 20.5729 209.198C19.9279 208.159 19.247 207.048 19.0678 206.761C18.817 206.367 18.5662 206.331 17.9928 206.582C17.2403 206.94 17.2403 207.012 19.247 210.345C20.3579 212.208 21.3254 213.821 21.397 213.892C21.4687 214 22.1137 213.534 22.8662 212.889C23.5829 212.28 25.2313 211.241 26.5213 210.631C27.8113 210.058 28.8863 209.521 28.958 209.449C29.2088 209.234 25.6971 203.859 24.9804 203.357C23.8696 202.569 22.6871 202.712 21.6837 203.715ZM24.8013 205.579C25.0879 205.937 25.5896 206.654 25.9121 207.191C26.5213 208.159 26.5213 208.195 25.4463 208.732L24.4071 209.27L23.4396 207.657C22.6871 206.331 22.5796 205.937 22.9379 205.507C23.5112 204.79 24.1562 204.826 24.8013 205.579Z" fill="#2F2F2F"/>
<path d="M248.118 208.373C247.437 209.448 247.33 209.341 250.913 211.67C252.06 212.423 252.991 213.175 252.991 213.319C252.991 213.534 251.415 216.078 250.626 217.081C250.59 217.153 249.336 216.4 247.831 215.397C246.362 214.394 245.036 213.569 244.893 213.569C244.606 213.569 243.71 214.716 243.674 215.074C243.674 215.361 249.73 219.518 250.59 219.876C251.02 220.019 255.858 213.319 255.858 212.566C255.858 212.387 254.245 211.169 252.275 209.879L248.691 207.478L248.118 208.373Z" fill="#2F2F2F"/>
<path d="M240.844 218.729L240.055 219.554L241.202 220.449L242.349 221.309L241.059 223.209C239.589 225.323 239.446 226.255 240.306 227.473C241.847 229.695 243.997 229.121 246.613 225.86L248.476 223.495L247.079 222.313C246.29 221.632 244.75 220.378 243.639 219.482L241.632 217.905L240.844 218.729ZM245.466 224.14C245.466 224.57 243.388 226.828 242.994 226.828C242.564 226.828 241.883 226.004 241.883 225.466C241.883 225.215 242.313 224.463 242.85 223.782C243.782 222.635 243.818 222.599 244.606 223.173C245.072 223.531 245.43 223.925 245.466 224.14Z" fill="#2F2F2F"/>
<path d="M233.498 227.509L232.458 228.584L233.104 231.916C233.426 233.744 233.784 235.571 233.892 235.965C233.999 236.395 233.104 235.75 231.598 234.245L229.126 231.809L228.338 232.669L227.549 233.493L230.703 236.61L233.856 239.728L234.895 238.653L235.934 237.578L235.325 234.102C234.967 232.167 234.716 230.447 234.716 230.232C234.716 230.053 235.325 230.483 236.078 231.164C239.482 234.317 239.303 234.21 240.091 233.421C240.808 232.74 240.808 232.705 237.654 229.587L234.501 226.469L233.498 227.509Z" fill="#2F2F2F"/>
<path d="M44.3307 228.906C43.1482 230.125 43.0765 230.304 43.5424 230.806C44.044 231.307 43.8649 231.63 41.7507 233.887L39.4215 236.432L42.4674 239.298L45.5132 242.129L47.6274 239.979C49.5983 238.044 49.885 237.865 50.96 238.044C51.9992 238.223 52.2858 238.08 53.1817 237.005C54.185 235.822 54.185 235.751 53.5759 235.07C52.9667 234.389 52.8592 234.389 52.2858 234.927C51.6767 235.464 51.4617 235.357 48.9533 233.063C46.1582 230.555 45.9074 230.161 46.6599 229.408C47.0183 229.05 46.9466 228.799 46.3732 228.261C45.6566 227.545 45.6566 227.545 44.3307 228.906ZM47.5558 234.425L49.025 235.966L47.1616 237.65L45.2624 239.334L43.9007 237.937C42.539 236.539 42.5032 236.503 43.184 235.715C44.6174 233.995 45.6566 232.92 45.8716 232.92C45.9791 232.92 46.7316 233.601 47.5558 234.425Z" fill="#2F2F2F"/>
<path d="M224.145 236.503C223.536 237.148 223.572 237.219 224.611 238.509L225.722 239.835L223.858 241.376L221.995 242.917L220.884 241.627C219.881 240.445 219.737 240.373 219.021 240.839C218.591 241.125 218.232 241.484 218.232 241.627C218.232 242.129 223.392 248.292 223.823 248.292C224.038 248.328 224.468 248.041 224.79 247.683C225.328 247.074 225.328 246.966 224.324 245.748L223.249 244.458L225.077 242.953L226.868 241.412L228.123 242.63L229.341 243.813L230.093 243.096L230.81 242.38L228.051 239.083C226.51 237.255 225.184 235.786 225.041 235.786C224.898 235.786 224.503 236.109 224.145 236.503Z" fill="#2F2F2F"/>
<path d="M54.2211 239.334C53.827 239.943 54.0061 240.194 55.6545 241.555C56.6937 242.415 57.6612 243.204 57.8404 243.347C58.1629 243.634 57.482 244.745 56.9803 244.745C56.837 244.745 55.8695 244.064 54.8661 243.275C53.1103 241.878 52.9311 241.806 52.3936 242.38C51.8203 242.953 51.8561 243.025 53.0386 243.956C55.7978 246.106 55.9412 246.285 55.3678 247.038C54.902 247.647 54.7586 247.611 52.7519 246.035C51.6053 245.139 50.5661 244.386 50.4227 244.386C50.3152 244.386 50.0286 244.709 49.8136 245.067C49.4911 245.676 49.8136 246.07 52.4653 248.113C54.1136 249.403 55.547 250.478 55.6545 250.478C55.762 250.478 56.3353 249.618 56.9087 248.579C57.5179 247.575 58.6287 246.07 59.4529 245.282C60.2771 244.53 60.9221 243.777 60.9221 243.67C60.9221 243.455 55.0453 238.653 54.7586 238.653C54.687 238.653 54.4361 238.975 54.2211 239.334Z" fill="#2F2F2F"/>
<path d="M214.219 244.315C213.252 244.888 213.216 244.996 213.18 248.328C213.144 253.381 212.965 253.56 210.958 250.514C210.027 249.117 209.166 247.97 208.987 247.97C208.844 247.97 208.414 248.221 208.056 248.507C207.411 249.009 207.482 249.188 209.632 252.449C210.887 254.348 212.033 255.961 212.212 256.068C212.356 256.176 213.001 255.925 213.574 255.495L214.649 254.743V250.801C214.649 248.651 214.757 246.895 214.936 246.895C215.079 246.931 215.903 248.006 216.799 249.296C217.695 250.622 218.591 251.733 218.77 251.804C218.985 251.84 219.415 251.661 219.809 251.374C220.418 250.908 220.347 250.693 218.017 247.289C216.692 245.282 215.509 243.67 215.402 243.67C215.294 243.67 214.757 243.957 214.219 244.315Z" fill="#2F2F2F"/>
<path d="M60.2409 249.618C59.3451 250.729 59.2734 252.163 60.0259 253.202C60.6351 254.098 65.1502 257.108 65.4368 256.821C65.5802 256.713 66.691 255.029 67.9094 253.13C69.9519 249.977 70.1311 249.582 69.5936 249.152C68.7336 248.543 68.1602 248.579 67.766 249.296C66.8344 250.944 66.8344 250.944 65.0427 249.797C62.821 248.4 61.2443 248.328 60.2409 249.618ZM64.2543 251.374C65.7952 252.449 65.7593 252.378 65.0068 253.524L64.4335 254.384L63.036 253.453C61.6026 252.521 61.2801 251.697 62.0685 250.908C62.6418 250.335 62.7135 250.335 64.2543 251.374Z" fill="#2F2F2F"/>
<path d="M203.433 251.589C202.859 251.912 202.931 252.163 204.221 254.707C205.01 256.212 205.619 257.466 205.583 257.538C205.511 257.574 204.257 256.642 202.752 255.495C200.172 253.489 199.957 253.381 199.025 253.775L198.058 254.205L198.273 257.896C198.344 259.939 198.38 261.587 198.344 261.587C198.273 261.587 197.52 260.297 196.696 258.756C195.263 256.069 195.155 255.925 194.367 256.284C193.901 256.499 193.507 256.821 193.507 256.964C193.507 257.108 194.403 258.935 195.514 261.014L197.52 264.812L198.954 264.06L200.423 263.307L200.208 259.544L199.957 255.782L201.462 257C202.286 257.645 203.576 258.684 204.364 259.294L205.762 260.404L207.16 259.652C207.912 259.222 208.557 258.756 208.557 258.577C208.557 257.968 204.795 251.195 204.436 251.195C204.257 251.195 203.791 251.374 203.433 251.589Z" fill="#2F2F2F"/>
<path d="M71.8153 252.843C70.9195 253.703 70.8836 254.097 71.457 255.531C71.6361 255.889 71.4211 256.212 70.812 256.498C69.7728 256.964 69.3069 258.326 69.8444 259.365C70.1311 259.902 73.822 262.124 76.402 263.307C76.5095 263.378 76.9037 262.554 77.2262 261.515C77.5846 260.476 78.5162 258.756 79.3046 257.681C80.6663 255.817 80.7021 255.71 80.0571 255.244C78.9463 254.42 73.7862 251.912 73.2128 251.912C72.962 251.912 72.317 252.342 71.8153 252.843ZM76.0795 254.814C78.0146 255.817 77.9429 255.674 77.2621 256.749L76.6529 257.645L75.327 256.964C73.6428 256.104 72.962 255.316 73.2487 254.599C73.4995 253.847 74.2878 253.918 76.0795 254.814ZM74.5029 258.254C75.6137 258.899 75.7929 259.293 75.3987 260.297C75.2195 260.798 75.0404 260.762 73.822 260.153C72.2453 259.365 71.887 258.899 72.1736 258.182C72.4245 257.466 73.177 257.502 74.5029 258.254Z" fill="#2F2F2F"/>
<path d="M82.7805 260.261C82.7805 265.743 82.9955 266.496 84.4288 266.962C85.7905 267.428 85.7188 267.499 90.4131 263.199C92.7423 261.085 92.8498 260.906 92.1689 260.547C91.1656 260.01 90.6639 260.046 89.9114 260.727C89.3739 261.228 89.1231 261.192 87.2239 260.404C85.3605 259.616 85.1097 259.365 85.0022 258.433C84.9305 257.609 84.6438 257.251 83.8196 256.964L82.7805 256.606V260.261ZM86.6147 262.124C87.3314 262.447 87.7614 262.805 87.5822 262.948C87.403 263.092 86.7222 263.665 86.113 264.238L84.9305 265.313V263.45C84.9305 262.411 85.0022 261.587 85.1097 261.587C85.2172 261.587 85.898 261.838 86.6147 262.124Z" fill="#2F2F2F"/>
<path d="M189.923 258.183C189.422 258.434 188.956 259.079 188.848 259.617C188.705 260.405 188.275 260.728 186.555 261.444L184.405 262.304L183.653 261.588C182.972 260.943 182.721 260.907 181.897 261.265C181.359 261.516 181.001 261.803 181.037 261.91C181.323 262.519 187.702 268.396 188.096 268.396C188.311 268.396 188.992 268.145 189.529 267.858C190.568 267.357 190.568 267.321 190.819 262.663C190.963 260.083 191.034 257.897 190.963 257.825C190.891 257.753 190.425 257.933 189.923 258.183ZM188.848 263.988C188.848 266.174 188.418 266.425 187.057 264.992C186.412 264.311 185.91 263.702 186.018 263.63C186.412 263.343 187.988 262.698 188.418 262.698C188.669 262.663 188.848 263.164 188.848 263.988Z" fill="#2F2F2F"/>
<path d="M95.1073 262.088C95.0357 262.303 94.4265 264.238 93.7456 266.353L92.5273 270.187L93.8531 270.545C94.5698 270.724 96.3973 271.298 97.9382 271.763C99.9449 272.408 100.769 272.516 100.877 272.229C100.948 271.978 101.163 271.011 101.414 270.043C101.629 269.076 102.059 267.822 102.346 267.213C102.812 266.353 103.062 266.209 103.958 266.317C104.747 266.46 105.033 266.317 105.212 265.779C105.499 264.848 104.532 264.095 103.134 264.095C101.701 264.095 100.59 265.421 99.8374 267.965L99.1924 270.079L97.329 269.542C96.3257 269.255 95.4657 268.968 95.394 268.933C95.3582 268.897 95.7165 267.571 96.2182 266.03C96.684 264.453 97.114 262.948 97.114 262.626C97.114 261.945 95.3582 261.443 95.1073 262.088Z" fill="#2F2F2F"/>
<path d="M176.056 263.271C175.017 263.486 175.017 263.952 176.128 267.463C176.629 269.04 176.988 270.33 176.916 270.366C176.88 270.402 176.163 270.617 175.339 270.868C173.798 271.298 173.512 271.692 174.121 272.659C174.408 273.089 175.124 272.982 178.708 271.907C182.685 270.724 182.936 270.581 182.829 269.793C182.649 268.646 182.614 268.61 181.144 269.112C180.428 269.327 179.639 269.47 179.424 269.363C179.173 269.255 178.564 267.786 178.098 266.102C177.597 264.417 177.131 263.056 177.023 263.056C176.916 263.092 176.486 263.199 176.056 263.271Z" fill="#2F2F2F"/>
<path d="M166.274 265.601C164.589 265.959 162.869 266.317 162.439 266.425C161.866 266.568 161.615 266.891 161.615 267.5C161.615 268.001 161.687 268.396 161.759 268.396C161.866 268.396 163.084 268.145 164.518 267.858C166.596 267.428 167.169 267.392 167.42 267.751C168.029 268.718 167.635 269.076 165.664 269.471C162.762 270.044 162.69 270.08 162.69 270.94C162.69 271.656 162.834 271.692 164.052 271.477C167.635 270.796 167.958 270.796 168.209 271.441C168.567 272.373 168.28 272.552 165.557 273.054C163.514 273.448 163.049 273.663 163.049 274.201C163.049 274.559 163.264 274.953 163.514 275.061C163.909 275.204 170.896 273.914 171.183 273.663C171.219 273.592 170.932 272.66 170.502 271.585C170.072 270.51 169.642 268.611 169.535 267.321L169.32 264.991L166.274 265.601Z" fill="#2F2F2F"/>
<path d="M109.799 268.968C109.441 270.652 109.011 272.193 108.903 272.408C108.76 272.623 107.936 272.552 106.646 272.229L104.639 271.692L104.424 272.552C104.281 273.053 104.245 273.519 104.317 273.591C104.496 273.77 110.516 275.168 110.659 275.06C110.838 274.881 112.594 266.567 112.487 266.46C112.415 266.388 111.913 266.245 111.412 266.137C110.48 265.887 110.444 265.958 109.799 268.968Z" fill="#2F2F2F"/>
<path d="M156.204 268.001C155.416 268.646 155.344 268.933 155.38 271.728L155.452 274.774L153.66 275.025C152.692 275.168 151.832 275.204 151.725 275.096C151.617 275.025 151.366 273.484 151.151 271.656C150.793 268.611 150.686 268.396 149.933 268.396C149.467 268.396 149.001 268.575 148.894 268.754C148.536 269.363 149.503 277.354 149.933 277.354C150.148 277.354 152.083 277.175 154.197 276.924L158.103 276.53L157.888 275.419C157.243 272.23 157.207 270.331 157.852 269.686C158.211 269.363 158.712 269.148 158.999 269.256C159.393 269.399 159.501 269.22 159.393 268.467C159.322 267.679 159.071 267.464 158.175 267.392C157.494 267.321 156.742 267.536 156.204 268.001Z" fill="#2F2F2F"/>
<path d="M140.294 268.933C140.115 269.005 139.505 269.148 138.968 269.256C137.535 269.578 136.71 271.298 137.248 272.839C137.714 274.308 138.825 274.846 141.369 274.846H143.34V276.279C143.34 277.641 143.411 277.712 144.415 277.712H145.49V273.233V268.754L143.089 268.79C141.727 268.79 140.509 268.861 140.294 268.933ZM143.34 271.836V273.09L141.476 272.982C140.007 272.911 139.541 272.731 139.47 272.23C139.255 271.155 140.079 270.546 141.763 270.546C143.34 270.546 143.34 270.546 143.34 271.836Z" fill="#2F2F2F"/>
</svg>
