<svg width="308" height="149" viewBox="0 0 308 149" fill="none" xmlns="http://www.w3.org/2000/svg">
<rect x="0.00012207" width="308" height="149" rx="10" fill="#C4F449"/>
<mask id="mask0_8_1906" style="mask-type:alpha" maskUnits="userSpaceOnUse" x="0" y="0" width="308" height="149">
<rect width="308" height="149" rx="10" fill="#C4F449"/>
</mask>
<g mask="url(#mask0_8_1906)">
<path opacity="0.0375" d="M199.64 195.961C277.176 396.754 -92.3826 315.458 -1.83455 195.148C43.2135 135.298 -84.844 58.4904 -25.1921 11.701C34.4248 -35.1281 71.8732 17.2815 141.711 40.5446C229.086 69.1308 179.138 142.827 199.64 195.961Z" stroke="white" stroke-width="1.0601" stroke-miterlimit="10"/>
<path opacity="0.075" d="M203.556 194.632C270.081 388.451 -82.7439 320.39 -4.2308 197.398C34.4473 136.729 -80.2128 51.2355 -19.6291 9.27513C40.8799 -32.69 81.514 14.5144 145.627 40.9807C225.546 74.0119 185.398 141.835 203.556 194.632Z" stroke="white" stroke-width="1.0601" stroke-miterlimit="10"/>
<path opacity="0.1125" d="M207.396 193.299C263.189 379.901 -73.2344 325.577 -6.6974 199.57C25.711 138.276 -75.582 43.982 -14.0712 6.9254C47.255 -30.1805 91.234 11.6786 149.498 41.5281C222.095 78.6749 191.738 140.775 207.396 193.299Z" stroke="white" stroke-width="1.0601" stroke-miterlimit="10"/>
<path opacity="0.15" d="M211.311 191.971C256.655 371.034 -63.5906 330.998 -9.09499 201.82C16.9642 139.972 -70.9872 36.6878 -8.54935 4.53498C53.6689 -27.707 100.808 8.75753 153.373 41.9997C218.567 83.332 198.081 139.639 211.311 191.971Z" stroke="white" stroke-width="1.0601" stroke-miterlimit="10"/>
<path opacity="0.1875" d="M215.191 190.604C250.48 361.854 -53.8454 336.615 -11.5265 204.032C8.36334 141.754 -66.3914 29.3949 -2.98662 2.11088C60.1236 -25.267 110.463 5.76779 157.284 42.5125C215.081 87.9556 204.43 138.429 215.191 190.604Z" stroke="white" stroke-width="1.0601" stroke-miterlimit="10"/>
<path opacity="0.225" d="M219.067 189.31C244.653 352.506 -43.9295 342.503 -13.9976 206.278C-0.246808 143.684 -61.8 22.1757 2.4968 -0.244413C66.4991 -22.7583 120.078 2.81184 161.12 43.0192C211.56 92.5381 210.899 137.113 219.067 189.31Z" stroke="white" stroke-width="1.0601" stroke-miterlimit="10"/>
<path opacity="0.2625" d="M222.947 187.941C239.334 342.852 -33.7549 348.446 -16.4295 208.488C-8.63321 145.627 -57.2045 14.8808 8.01932 -2.63551C72.9137 -20.2854 129.698 -0.219689 164.991 43.565C208.082 97.01 217.407 135.761 222.947 187.941Z" stroke="white" stroke-width="1.0601" stroke-miterlimit="10"/>
<path opacity="0.3" d="M226.823 186.649C234.548 333.084 -23.2907 354.558 -18.8663 210.774C-16.9146 147.692 -52.6139 7.66229 13.5767 -4.98523C79.3631 -17.7712 139.357 -3.28469 168.862 44.1123C204.605 101.483 224.074 134.27 226.823 186.649Z" stroke="white" stroke-width="1.0601" stroke-miterlimit="10"/>
<path opacity="0.3375" d="M230.703 185.282C230.26 323.16 -12.5172 360.541 -21.293 212.912C-25.0364 149.617 -47.9782 0.334633 19.0998 -7.37408C85.7432 -15.3358 149.056 -6.38403 172.738 44.5856C201.208 105.888 230.891 132.79 230.703 185.282Z" stroke="white" stroke-width="1.0601" stroke-miterlimit="10"/>
<path opacity="0.375" d="M234.579 183.989C226.536 313.233 -1.44469 366.541 -23.7295 215.198C-33.0835 151.545 -43.3873 -6.8844 24.6623 -9.79917C92.158 -12.8619 158.87 -9.51484 176.649 45.0973C197.845 110.33 237.858 131.318 234.579 183.989Z" stroke="white" stroke-width="1.0601" stroke-miterlimit="10"/>
<path opacity="0.4125" d="M238.459 182.62C223.34 303.264 9.83192 372.291 -26.1608 217.408C-41.0507 153.403 -38.7912 -14.1785 30.1855 -12.1895C98.5732 -10.3882 168.644 -12.6109 180.485 45.6041C194.563 114.703 245.089 129.826 238.459 182.62Z" stroke="white" stroke-width="1.0601" stroke-miterlimit="10"/>
<path opacity="0.45" d="M242.335 181.327C220.654 293.553 21.3022 377.941 -28.6324 219.654C-48.9786 155.226 -34.2355 -21.4378 35.6683 -14.545C104.948 -7.87971 178.418 -15.7071 184.321 46.1106C191.31 119.189 252.579 128.387 242.335 181.327Z" stroke="white" stroke-width="1.0601" stroke-miterlimit="10"/>
<path opacity="0.4875" d="M246.214 179.961C218.366 284.058 32.9755 383.343 -31.0299 221.907C-56.7528 156.987 -29.5705 -28.6499 41.2651 -16.9281C111.437 -5.39883 188.376 -18.7515 188.266 46.6644C188.096 123.644 260.358 127.119 246.214 179.961Z" stroke="white" stroke-width="1.0601" stroke-miterlimit="10"/>
<path opacity="0.525" d="M250.09 178.667C216.465 274.998 44.6245 388.553 -33.501 224.152C-64.6308 158.625 -24.9744 -35.9445 46.7134 -19.3237C117.777 -2.93044 198.146 -21.7732 192.068 47.1308C184.919 128.135 268.463 126.057 250.09 178.667Z" stroke="white" stroke-width="1.0601" stroke-miterlimit="10"/>
<path opacity="0.5625" d="M253.971 177.299C214.794 266.441 56.3573 393.619 -35.893 226.328C-72.39 160.159 -20.3788 -43.2383 52.2759 -21.7488C124.197 -0.531321 208.104 -24.8197 195.943 47.6028C181.701 132.662 276.888 125.278 253.971 177.299Z" stroke="white" stroke-width="1.0601" stroke-miterlimit="10"/>
<path opacity="0.6" d="M257.885 175.971C213.159 258.488 68.104 398.462 -38.3253 228.54C-80.2198 161.613 -15.7089 -50.5268 57.8378 -24.1732C130.651 1.90824 218.022 -27.8305 199.854 48.1152C178.518 137.229 285.552 124.854 257.885 175.971Z" stroke="white" stroke-width="1.0601" stroke-miterlimit="10"/>
<path d="M-10.5888 271.282C-326.557 356.919 -52.7514 -125.817 69.039 21.6851C129.982 95.5707 276.143 -76.5176 324.346 5.75801C372.549 88.0336 280.877 123.958 225.481 218.339C156.342 336.257 71.0762 249.18 -10.5888 271.282Z" stroke="white" stroke-width="1.0601" stroke-miterlimit="10"/>
<path opacity="0.95" d="M-10.2047 276.453C-313.303 348.713 -62.919 -114.183 66.8896 18.2817C131.389 84.094 284.266 -69.6148 325.525 13.195C366.823 95.9698 281.295 136.867 223.326 223.273C151.4 331.286 69.8039 257.362 -10.2047 276.453Z" stroke="white" stroke-width="1.0601" stroke-miterlimit="10"/>
<path opacity="0.9" d="M-9.85545 281.583C-299.839 340.745 -73.4113 -102.758 64.7799 14.8425C132.611 72.5671 292.429 -62.7479 326.669 20.5914C361.027 103.826 281.427 149.532 221.176 228.131C146.134 326.106 68.6065 265.548 -9.85545 281.583Z" stroke="white" stroke-width="1.0601" stroke-miterlimit="10"/>
<path opacity="0.85" d="M-9.54554 286.747C-286.098 333.169 -84.3519 -91.3625 62.6311 11.4374C133.644 61.0647 300.553 -55.8469 327.808 28.0617C355.187 111.79 281.7 162.356 218.983 233.098C141.088 321.014 67.4796 273.813 -9.54554 286.747Z" stroke="white" stroke-width="1.0601" stroke-miterlimit="10"/>
<path opacity="0.8" d="M-9.16082 291.917C-272.078 325.912 -95.6364 -79.8755 60.5618 7.96307C134.563 49.5933 308.791 -48.9754 329.032 35.3879C349.472 119.576 282.097 175 216.873 237.921C136.082 315.888 66.4625 282.123 -9.16082 291.917Z" stroke="white" stroke-width="1.0601" stroke-miterlimit="10"/>
<path opacity="0.75" d="M-8.81159 297.046C-257.748 319.087 -107.27 -68.2235 58.4124 4.5581C135.207 38.2917 316.914 -42.0742 330.171 42.8583C343.671 127.506 282.444 187.828 214.719 242.854C131.11 310.801 65.5548 290.477 -8.81159 297.046Z" stroke="white" stroke-width="1.0601" stroke-miterlimit="10"/>
<path opacity="0.7" d="M-8.46239 302.175C-243.192 312.841 -119.261 -56.2559 56.3028 1.11852C135.732 27.0956 325.077 -35.2077 331.315 50.2543C337.835 135.396 282.835 200.546 212.529 247.746C126.179 305.68 64.7171 298.911 -8.46239 302.175Z" stroke="white" stroke-width="1.0601" stroke-miterlimit="10"/>
<path opacity="0.65" d="M-8.11832 307.381C-228.37 307.138 -131.427 -43.9226 54.1929 -2.31981C136.173 16.0455 333.24 -28.3399 332.533 57.6563C332.079 143.218 283.337 213.311 210.454 252.61C121.356 300.604 63.9491 307.426 -8.11832 307.381Z" stroke="white" stroke-width="1.0601" stroke-miterlimit="10"/>
<path opacity="0.6" d="M-7.76868 312.512C-213.401 302.083 -143.655 -31.1804 52.0838 -5.7584C136.56 5.25467 341.398 -21.3976 333.672 65.128C326.279 151.149 283.794 226.185 208.26 257.579C116.53 295.603 63.2822 316.135 -7.76868 312.512Z" stroke="white" stroke-width="1.0601" stroke-miterlimit="10"/>
<path opacity="0.55" d="M-7.41954 317.641C-198.325 297.709 -155.833 -18.061 49.9693 -9.12372C137.012 -5.38333 349.561 -14.5315 334.816 72.5235C320.483 159.004 284.326 239.062 206.11 262.436C111.738 290.64 62.68 324.997 -7.41954 317.641Z" stroke="white" stroke-width="1.0601" stroke-miterlimit="10"/>
<path opacity="0.5" d="M-7.0747 322.844C-183.222 294.088 -167.924 -4.52322 47.8601 -12.5641C137.494 -15.907 357.725 -7.66587 336.035 79.9234C314.723 166.898 284.858 251.939 203.921 267.328C106.942 285.751 62.0641 334.082 -7.0747 322.844Z" stroke="white" stroke-width="1.0601" stroke-miterlimit="10"/>
<path opacity="0.45" d="M-6.72563 327.977C-168.242 291.214 -179.805 9.25709 45.7504 -16.0007C138.046 -26.3473 365.848 -0.761308 337.179 87.3224C308.927 174.757 285.385 264.895 201.771 272.189C102.18 280.907 61.3537 343.467 -6.72563 327.977Z" stroke="white" stroke-width="1.0601" stroke-miterlimit="10"/>
<path opacity="0.4" d="M-6.34051 333.145C-153.458 289.075 -191.476 23.2723 43.6418 -19.441C138.705 -36.672 374.086 6.10922 338.358 94.7574C303.167 182.651 285.908 277.921 199.657 277.085C97.3401 276.128 60.6206 353.221 -6.34051 333.145Z" stroke="white" stroke-width="1.0601" stroke-miterlimit="10"/>
<path opacity="0.35" d="M-5.99164 338.276C-139.127 287.547 -203.003 37.3733 41.5319 -22.88C139.436 -46.9906 382.249 12.9763 339.502 102.154C297.331 190.542 286.39 290.984 197.467 281.979C92.5337 271.391 59.6777 363.301 -5.99164 338.276Z" stroke="white" stroke-width="1.0601" stroke-miterlimit="10"/>
<path opacity="0.3" d="M-5.6815 343.441C-125.397 286.618 -214.314 51.6382 39.3832 -26.284C140.204 -57.2694 390.373 19.8785 340.681 109.59C291.571 198.438 286.834 304.082 195.353 286.877C87.6138 266.683 58.3684 373.847 -5.6815 343.441Z" stroke="white" stroke-width="1.0601" stroke-miterlimit="10"/>
<path opacity="0.25" d="M-5.29757 348.609C-112.47 285.901 -225.401 65.9158 37.2733 -29.7245C141.121 -67.5401 398.496 26.7792 341.825 116.986C285.775 206.292 287.201 317.174 193.164 291.769C82.6929 261.975 56.5805 384.811 -5.29757 348.609Z" stroke="white" stroke-width="1.0601" stroke-miterlimit="10"/>
<path opacity="0.2" d="M-4.94845 353.739C-100.45 285.277 -236.339 80.2044 35.1637 -33.1635C142.072 -77.7697 406.658 33.6462 343.004 124.422C279.974 214.223 287.569 330.267 191.009 296.702C77.7323 257.303 54.2056 396.152 -4.94845 353.739Z" stroke="white" stroke-width="1.0601" stroke-miterlimit="10"/>
<path opacity="0.2" d="M-58.7338 99.624C-258.834 -170.454 325.516 -142.367 221.044 52.6942C168.743 150.352 394.507 208.52 329.143 297.834C263.778 387.149 194.586 314.24 79.6394 306.958C-63.8792 297.781 -7.02785 169.354 -58.7338 99.624Z" stroke="white" stroke-width="1.0601" stroke-miterlimit="10"/>
<path opacity="0.2125" d="M-63.8012 102.531C-245.638 -161.238 310.121 -146.539 223.73 48.8469C180.737 146.008 390.542 220.06 322.111 302.682C253.755 385.309 181.751 321.16 73.911 307.269C-60.7049 290.397 -15.6654 172.297 -63.8012 102.531Z" stroke="white" stroke-width="1.09323" stroke-miterlimit="10"/>
<path opacity="0.225" d="M-68.8329 105.479C-232.619 -151.583 294.78 -150.971 226.417 45C192.742 141.515 386.578 231.601 315.081 307.53C243.728 383.544 168.982 327.671 68.2582 307.586C-57.4265 282.569 -24.3468 175.35 -68.8329 105.479Z" stroke="white" stroke-width="1.12636" stroke-miterlimit="10"/>
<path opacity="0.2375" d="M-73.9061 108.462C-219.86 -141.418 279.352 -155.821 229.137 41.1933C204.754 136.873 382.613 243.142 308.044 312.454C233.699 381.78 156.271 334.411 62.5287 307.898C-54.0894 274.971 -32.9996 178.518 -73.9061 108.462Z" stroke="white" stroke-width="1.15949" stroke-miterlimit="10"/>
<path opacity="0.25" d="M-78.9734 111.368C-207.428 -130.825 263.72 -160.986 231.784 37.3799C216.552 132.065 378.608 254.716 301.008 317.375C223.707 380.054 143.596 341.189 56.8707 308.288C-50.7908 267.406 -41.621 181.798 -78.9734 111.368Z" stroke="white" stroke-width="1.19261" stroke-miterlimit="10"/>
<path opacity="0.2625" d="M-84.0056 114.316C-195.328 -119.726 247.842 -166.428 234.47 33.5332C228.211 127.1 374.604 266.292 293.977 322.224C213.719 378.254 130.921 347.969 51.1425 308.6C-47.4221 259.922 -50.2869 185.191 -84.0056 114.316Z" stroke="white" stroke-width="1.22574" stroke-miterlimit="10"/>
<path opacity="0.275" d="M-89.1134 117.256C-183.785 -108.139 231.565 -172.086 237.155 29.6839C239.689 122.008 370.604 277.79 286.905 327.105C203.651 376.522 118.241 354.821 45.4136 308.909C-44.059 252.51 -59.0777 188.76 -89.1134 117.256Z" stroke="white" stroke-width="1.25887" stroke-miterlimit="10"/>
<path opacity="0.2875" d="M-94.1451 120.205C-172.764 -96.0174 214.884 -177.878 239.838 25.9136C251.013 116.985 366.635 289.408 279.87 332.029C193.624 374.759 105.557 361.752 39.7209 309.262C-40.6596 245.143 -67.9118 192.444 -94.1451 120.205Z" stroke="white" stroke-width="1.292" stroke-miterlimit="10"/>
<path opacity="0.3" d="M-99.1777 123.152C-162.365 -83.5628 197.748 -183.626 242.523 22.066C262.078 111.906 362.67 300.948 272.799 336.912C183.636 372.959 92.8321 368.716 33.9923 309.573C-37.3057 237.883 -76.8662 196.23 -99.1777 123.152Z" stroke="white" stroke-width="1.32513" stroke-miterlimit="10"/>
<path opacity="0.3125" d="M-104.285 126.093C-152.709 -70.668 180.19 -189.215 245.209 18.2174C272.992 106.817 358.705 312.487 265.802 341.798C173.608 371.192 80.1028 375.753 28.2988 309.923C-34.0663 230.652 -86.0195 200.19 -104.285 126.093Z" stroke="white" stroke-width="1.35825" stroke-miterlimit="10"/>
<path opacity="0.325" d="M-109.317 129.04C-143.744 -57.5159 162.278 -194.562 247.891 14.4447C283.739 102.018 354.661 324.097 258.767 346.721C163.615 369.467 67.3344 382.827 22.6059 310.274C-30.831 223.497 -95.4411 204.247 -109.317 129.04Z" stroke="white" stroke-width="1.39138" stroke-miterlimit="10"/>
<path opacity="0.3375" d="M-114.39 132.023C-135.612 -44.2654 144.123 -199.623 250.577 10.5984C294.415 97.1403 350.696 335.638 251.695 351.604C153.552 367.663 54.4554 389.857 16.9171 310.552C-27.7063 216.298 -105.163 208.286 -114.39 132.023Z" stroke="white" stroke-width="1.42451" stroke-miterlimit="10"/>
<path opacity="0.35" d="M-119.457 134.929C-128.267 -31.0294 125.759 -204.361 253.263 6.7501C305.002 92.4807 346.731 347.178 244.664 356.451C143.525 365.897 41.5368 396.92 11.2237 310.902C-24.661 209.168 -115.338 212.369 -119.457 134.929Z" stroke="white" stroke-width="1.45764" stroke-miterlimit="10"/>
<path opacity="0.3625" d="M-124.489 137.877C-121.662 -17.9886 107.337 -208.762 255.91 2.93898C315.58 87.9729 342.727 358.754 237.628 361.375C133.497 364.133 28.5437 403.981 5.53057 311.254C-21.6456 201.925 -125.921 216.391 -124.489 137.877Z" stroke="white" stroke-width="1.49077" stroke-miterlimit="10"/>
<path opacity="0.375" d="M-129.561 140.857C-115.7 -5.4426 88.8606 -212.908 258.632 -0.870531C326.228 83.5415 338.763 370.292 230.593 366.296C123.505 362.405 15.5159 410.999 -0.162231 311.603C-18.7048 194.674 -137.054 220.187 -129.561 140.857Z" stroke="white" stroke-width="1.5239" stroke-miterlimit="10"/>
<path opacity="0.3875" d="M-134.63 143.764C-110.265 6.50817 70.4083 -216.862 261.317 -4.71819C336.83 79.2215 334.757 381.867 223.56 371.143C113.476 360.64 2.49122 417.943 -5.89172 311.914C-15.7258 187.39 -148.772 223.722 -134.63 143.764Z" stroke="white" stroke-width="1.55702" stroke-miterlimit="10"/>
<path opacity="0.4" d="M-139.661 146.713C-105.221 17.5344 52.0137 -220.511 263.964 -8.52918C347.429 74.978 330.753 393.444 216.49 376.027C103.449 358.876 -10.5666 424.85 -11.6193 312.227C-12.8149 180.028 -161.019 226.737 -139.661 146.713Z" stroke="white" stroke-width="1.59015" stroke-miterlimit="10"/>
</g>
</svg>
