<svg width="35" height="34" viewBox="0 0 35 34" fill="none" xmlns="http://www.w3.org/2000/svg">
<path d="M21.67 6.595H10.06L14.245 2.365V34H4.92999V0.25H22.3C24.91 0.25 27.16 0.685001 29.05 1.555C30.94 2.425 32.38 3.655 33.37 5.245C34.39 6.835 34.9 8.695 34.9 10.825C34.9 12.955 34.39 14.815 33.37 16.405C32.38 17.965 30.94 19.195 29.05 20.095C27.16 20.965 24.91 21.4 22.3 21.4H0.15999V15.055H21.67C22.87 15.055 23.8 14.68 24.46 13.93C25.15 13.18 25.495 12.145 25.495 10.825C25.495 9.475 25.15 8.44 24.46 7.72C23.8 6.97 22.87 6.595 21.67 6.595ZM0.11499 29.995V24.505H28.015V29.995H0.11499Z" fill="white"/>
</svg>
