<svg width="22" height="18" viewBox="0 0 22 18" fill="none" xmlns="http://www.w3.org/2000/svg">
<path d="M21.3357 0C21.2574 0 21.177 0.0141509 21.097 0.0442835L0.429362 7.87946C-0.154663 8.10092 -0.139018 8.93011 0.452649 9.12978L5.24457 10.7453L8.13414 16.5152C8.13486 16.517 8.13596 16.5181 8.13668 16.5199L8.14432 16.5351L8.14651 16.534C8.19891 16.6404 8.30771 16.7094 8.42415 16.7094C8.49256 16.7094 8.56242 16.6865 8.62283 16.6353L11.3297 14.3452L8.30698 12.0566L8.5435 15.0623L6.37078 10.574L17.9192 3.65329L8.30698 12.057L15.7898 17.7226C16.0401 17.9121 16.3272 18 16.6089 18C17.2024 18 17.7733 17.6115 17.9341 16.97L21.9794 0.827005C22.0889 0.389176 21.7461 0 21.3357 0Z" fill="white"/>
</svg>
