<svg width="159" height="34" viewBox="0 0 159 34" fill="none" xmlns="http://www.w3.org/2000/svg">
<path d="M54.1624 13.685H48.0972V9.95312H64.6439V13.6924H58.5787V23.9974H54.1624V13.685Z" fill="#2F2F2F"/>
<path d="M66.2042 23.9597V9.97437H70.6205V23.9597H66.2042Z" fill="#2F2F2F"/>
<path d="M84.9816 17.6302V9.95312H89.0446V23.9385H85.2759L77.709 16.2172V23.9606H73.646V9.97522H77.5912L84.9816 17.6302Z" fill="#2F2F2F"/>
<path d="M96.3978 23.9597H92.1285V9.97437H96.3978V15.2447H97.5754L102.728 9.97437H108.086L101.256 16.6872L108.351 23.9889H102.662L97.568 18.6894H96.3904L96.3978 23.9597Z" fill="#2F2F2F"/>
<path d="M126.393 16.9821C126.393 21.1629 122.948 24.4016 117.236 24.4016C111.524 24.4016 108.05 21.1629 108.05 16.9821C108.05 12.8012 111.495 9.5625 117.236 9.5625C122.977 9.5625 126.393 12.8012 126.393 16.9821ZM121.917 16.9821C121.917 14.6855 120.063 13.0074 117.236 13.0074C114.409 13.0074 112.555 14.6855 112.555 16.9821C112.555 19.2786 114.38 20.9862 117.236 20.9862C120.092 20.9862 121.917 19.2786 121.917 16.9821Z" fill="#2F2F2F"/>
<path d="M132.745 13.5074V16.0396H142.167V18.984H132.745V23.9597H128.476V9.97437H142.52V13.5369L132.745 13.5074Z" fill="#2F2F2F"/>
<path d="M148.776 13.5074V16.0396H158.198V18.984H148.776V23.9597H144.522V9.97437H158.566V13.5369L148.776 13.5074Z" fill="#2F2F2F"/>
<path d="M37.6256 15.9252L38.097 14.3412L36.4611 14.393C35.7063 14.3633 34.9767 14.1125 34.3632 13.6717C34.4387 13.6717 34.5094 13.6717 34.5847 13.6717C35.5861 13.669 36.4995 13.099 36.9419 12.2008L37.6444 10.6403C37.0787 10.6451 36.5133 10.612 35.952 10.5412C35.417 10.4143 34.9354 10.1223 34.5755 9.70678C34.0866 9.18478 33.4049 8.88651 32.6896 8.88179C32.4095 8.88305 32.1312 8.92755 31.8646 9.01387C31.9044 8.88714 31.936 8.75805 31.959 8.62724C32.0697 7.70823 31.812 6.78277 31.2423 6.05322L30.0166 4.53044L29.2529 6.32192C29.1325 6.57617 28.9471 6.79409 28.7155 6.95368C28.585 6.31611 28.2704 5.73089 27.8103 5.27068C27.0386 4.47981 25.9783 4.03721 24.8732 4.04491C24.6806 4.04397 24.4883 4.05812 24.2981 4.08736L22.8272 4.37494C22.956 3.87573 23.1594 3.39901 23.4306 2.96065L24.2415 1.66413L22.1719 1.88566L21.5165 0.471376L20.2436 1.12671L19.0556 0L17.8911 1.15973L16.6134 0.504395L15.9581 1.88566L13.8979 1.64998L14.7182 2.94178C14.9886 3.37998 15.1905 3.85686 15.3169 4.35607L13.9026 4.07793H13.8555C13.6589 4.04821 13.4602 4.03391 13.2615 4.03548C12.1564 4.02714 11.0958 4.46991 10.3244 5.26125C9.86291 5.72115 9.54657 6.30636 9.41449 6.94424C9.18588 6.78858 9.00223 6.57554 8.88179 6.32664L8.11813 4.53044L6.86877 6.06265C6.30888 6.79314 6.05683 7.71357 6.16627 8.62724C6.18954 8.7579 6.22098 8.88698 6.26061 9.01387C5.9941 8.92708 5.7158 8.88258 5.43562 8.88179C4.72053 8.88714 4.03894 9.18525 3.54979 9.70678C3.19194 10.1181 2.71631 10.4093 2.18739 10.5412C1.62262 10.6249 1.0514 10.658 0.480811 10.6403L1.18332 12.2008C1.62671 13.0982 2.53943 13.6679 3.54052 13.6717C3.61599 13.6717 3.68674 13.6717 3.76205 13.6717C3.15011 14.1174 2.42041 14.3732 1.66413 14.4072L0 14.3553L0.504397 15.9394C0.874203 17.1844 1.94541 18.0927 3.23407 18.2541C3.10106 19.0873 2.57449 19.8052 1.81979 20.1823L0.579867 20.6914L1.25879 21.87C1.81633 22.7391 2.78141 23.2608 3.81394 23.2512C4.08328 23.2506 4.35183 23.2223 4.61535 23.1663C4.67588 23.4623 4.75135 23.755 4.8416 24.0432C5.07509 24.6621 5.0916 25.3418 4.88877 25.9713L4.27589 27.2537L5.643 27.612C5.95117 27.69 6.268 27.7296 6.58592 27.73C6.81657 27.7276 7.04597 27.6974 7.26955 27.6403C7.4304 27.6043 7.5881 27.5556 7.74093 27.4941C7.91624 27.8098 8.13165 28.1013 8.38212 28.3616C9.25899 29.262 10.5036 29.7192 12.0734 29.7192H13.1954L10.8759 30.6622L12.6391 31.5154C13.3471 31.8664 14.0724 32.1812 14.8125 32.4584L14.591 33.0618L15.1992 33.3399C16.2083 33.7385 17.2782 33.9616 18.3625 34C18.3625 34 18.8339 34 19.0886 34C19.3433 34 19.8099 34 19.8099 34C20.8876 33.9613 21.951 33.7398 22.9544 33.3447L23.5626 33.0665L23.341 32.4631C24.0894 32.1753 24.8228 31.8497 25.538 31.4871L27.2682 30.648L24.9534 29.7051H26.0801C27.6548 29.7051 28.9087 29.2337 29.7762 28.3474C30.0269 28.0875 30.2425 27.7958 30.4173 27.48C30.5705 27.5408 30.728 27.5897 30.8887 27.6262C31.1082 27.6771 31.3329 27.7024 31.5582 27.7017C31.8761 27.7009 32.1928 27.6612 32.5011 27.5837L33.8777 27.2207L33.2789 25.9619C33.0648 25.325 33.0782 24.6336 33.3167 24.0055C33.411 23.7179 33.4958 23.4256 33.5618 23.138C33.8269 23.1939 34.097 23.2223 34.3679 23.2229C35.4096 23.2306 36.3798 22.6945 36.9278 21.8087L37.5973 20.6442L36.3574 20.1351C35.6015 19.7592 35.0745 19.0408 34.9431 18.207C36.2287 18.0386 37.2965 17.1331 37.6727 15.8922" fill="white"/>
<path d="M19.0558 4.84627C17.7404 4.84627 16.7552 5.28007 16.5431 5.78918L19.0558 6.77926L21.5732 5.78446C21.3611 5.27535 20.3757 4.84155 19.0558 4.84155" fill="white"/>
<path d="M19.0888 31.1149H19.0558C18.2385 31.1078 17.4252 31.0032 16.6326 30.8037L15.9819 32.5292C17.9964 33.1098 20.1339 33.1098 22.1484 32.5292L21.5119 30.8084C20.7193 31.0078 19.9059 31.1122 19.0887 31.1196" fill="white"/>
<path d="M23.9019 29.4082C23.2118 29.7529 22.4944 30.04 21.7568 30.2662L22.2707 31.6805C23.0931 31.4646 23.8922 31.1678 24.6562 30.7942L23.5861 30.4406L23.9019 29.4082Z" fill="white"/>
<path d="M14.2284 29.4082L14.5442 30.4406L13.4741 30.7942C14.2367 31.1671 15.0342 31.464 15.8549 31.6805L16.3735 30.2662C15.636 30.0398 14.9186 29.7527 14.2284 29.4082Z" fill="white"/>
<path d="M19.0558 3.20113C19.9998 3.19138 20.9314 3.41653 21.7666 3.85646C21.8471 3.58492 21.9448 3.31889 22.0589 3.05978L21.7761 3.09279L21.4791 3.12581L21.3517 2.85711L20.9745 2.06042L20.2862 2.41875L20.0175 2.55554L19.8148 2.35758L19.0558 1.59863L18.3157 2.35758L18.1131 2.55082L17.8444 2.41403L17.1513 2.0557L16.7788 2.85239L16.6515 3.1211L16.3545 3.08808L16.0716 3.05506C16.1853 3.31433 16.2829 3.58052 16.3639 3.85175C17.1941 3.41685 18.1187 3.19326 19.0558 3.20113Z" fill="white"/>
<path d="M34.1985 12.4319C34.3243 12.4759 34.4565 12.4983 34.5899 12.4979C35.1287 12.4931 35.6221 12.195 35.8769 11.7201C35.0498 11.5841 34.2952 11.166 33.7413 10.5368C33.4759 10.24 33.0976 10.0689 32.6995 10.0654C32.3915 10.0712 32.091 10.1626 31.832 10.3294C33.1663 11.0414 33.4397 12.1822 34.1892 12.4368" fill="white"/>
<path d="M3.54547 12.4979C3.67723 12.4982 3.80789 12.4759 3.9321 12.4319C4.69577 12.1773 4.96919 11.0176 6.2893 10.3245C6.03034 10.1577 5.72987 10.0664 5.42186 10.0605C5.02202 10.0627 4.64184 10.234 4.37533 10.5319C3.82267 11.1602 3.06984 11.5781 2.24438 11.7152C2.4991 12.1901 2.99249 12.4883 3.53147 12.4931" fill="white"/>
<path d="M34.5566 17.0665H34.6132C36.0275 17.0665 36.4991 15.5673 36.4991 15.5673H36.4708C34.979 15.5168 33.5854 14.8115 32.6615 13.6392C31.695 12.4087 30.8983 11.3291 29.3331 10.9048L29.1776 10.8765L29.1446 10.721C29.1021 10.4806 29.2672 10.2496 29.616 10.0137C31.7799 8.59945 30.3091 6.79381 30.3091 6.79381C30.3091 6.79381 29.6915 8.23641 28.3102 8.23641H28.2064C28.0482 8.23342 27.8905 8.21769 27.735 8.18924L27.4805 8.14207C27.6921 7.4067 27.4778 6.61473 26.9242 6.08659C26.3758 5.52434 25.6211 5.21097 24.8357 5.21915C24.6967 5.21758 24.5579 5.22858 24.4208 5.25217C24.8921 5.87449 25.2458 6.91158 24.6942 7.55277C24.2228 8.10433 23.0536 8.12791 23.0536 8.96705C23.0536 9.31595 23.379 9.71657 23.9588 10.0796C25.7079 11.1827 27.4427 12.6442 28.1688 14.6008C29.0693 17.0429 28.0556 18.6646 26.6036 19.598C26.9185 19.8636 27.3063 20.0279 27.7162 20.0694C27.853 20.0694 27.9802 20.0694 28.1028 20.0694C28.8613 20.1004 29.6072 19.8689 30.2149 19.4141C30.1109 20.0548 29.8394 20.6567 29.4276 21.1584C28.708 21.9947 27.6448 22.4552 26.5424 22.4077C26.5423 22.854 26.7347 23.2783 27.0704 23.5722C27.4462 23.8244 27.8756 23.9859 28.3245 24.0436C28.3245 24.0436 26.6839 24.3783 26.5 26.8016C26.5044 27.4177 26.3553 28.0253 26.0662 28.5695H26.0945C29.9037 28.5695 29.8047 25.3024 29.8047 25.3024C30.0054 25.9129 30.5087 26.3751 31.134 26.5234C31.2636 26.5558 31.3966 26.5715 31.5301 26.5706C31.7463 26.5692 31.9614 26.5423 32.1713 26.4904C31.827 25.5789 31.827 24.5733 32.1713 23.6618C32.4394 22.9055 32.5688 22.107 32.5532 21.3046C32.9884 21.8375 33.6532 22.1287 34.34 22.0872C34.9513 22.0982 35.5256 21.7958 35.8627 21.2858C33.3217 20.2298 33.5763 16.8306 33.5763 16.8306C33.8684 17.0094 34.2049 17.1025 34.5475 17.0993M33.7835 20.654C32.751 20.1449 32.0958 18.7918 31.9402 18.2968C31.7847 20.9557 30.4693 22.8132 28.9559 24.6047C28.4886 25.1426 28.1257 25.763 27.8858 26.434C28.0111 25.7574 28.2992 25.1215 28.725 24.5811C30.1392 22.8651 31.5112 20.7295 31.6101 18.2638C31.6898 16.7655 31.3188 15.2778 30.5447 13.9925C31.0377 15.4151 30.6543 16.9943 29.5641 18.0327C29.5641 18.0327 32.1617 14.8976 28.4845 11.6871C27.0231 10.4661 25.4201 9.71185 24.5951 9.17444C27.5699 10.1457 29.0267 9.07539 29.0267 9.07539C28.2048 9.71248 27.1484 9.965 26.1273 9.76846C26.3347 9.86751 26.5517 9.97584 26.7827 10.0985C29.2908 11.4609 31.549 13.705 31.9309 16.8118V16.7882C32.5155 19.8384 33.8167 20.621 33.8167 20.621" fill="white"/>
<path d="M9.80145 24.0151C10.2431 23.9639 10.6672 23.8123 11.0414 23.5721C11.3846 23.2837 11.5859 22.8606 11.5929 22.4123C10.4892 22.4598 9.42457 21.9996 8.70304 21.163C8.27427 20.6675 7.98465 20.0672 7.8639 19.4234C8.4705 19.8803 9.21718 20.112 9.97598 20.0787C10.1033 20.0787 10.2305 20.0787 10.3673 20.0787C10.7788 20.0378 11.1683 19.8735 11.4846 19.6073C10.0326 18.6644 9.0142 17.0569 9.91466 14.6101C10.636 12.6537 12.3756 11.1875 14.1247 10.0889C14.7045 9.72587 15.0298 9.32053 15.0298 8.97635C15.0298 8.15608 13.8654 8.1325 13.3893 7.56206C12.8377 6.92088 13.1819 5.8885 13.658 5.26147C13.5211 5.23772 13.3821 5.22672 13.2431 5.22845C12.4577 5.22027 11.7032 5.53363 11.1546 6.09589C10.6 6.62355 10.3856 7.41615 10.5983 8.15136L10.3437 8.20325C10.1881 8.23124 10.0304 8.24696 9.87236 8.25042H9.77331C8.38732 8.25042 7.77444 6.80783 7.77444 6.80783C7.77444 6.80783 6.32713 8.59931 8.49109 10.0183C8.86357 10.2587 9.02851 10.4897 8.96247 10.7255L8.92945 10.881L8.77395 10.9093C7.20872 11.3337 6.41675 12.4133 5.44554 13.6437C4.52464 14.805 3.14101 15.5046 1.6599 15.5579H1.61273C1.61273 15.5579 2.08411 17.0571 3.49856 17.0571H3.56459C3.90704 17.0602 4.24351 16.9671 4.5358 16.7883C4.5358 16.7883 4.78564 20.1874 2.24464 21.2435C2.58237 21.7529 3.15626 22.0549 3.76742 22.0449C4.4542 22.0864 5.11897 21.7952 5.55419 21.2623C5.53893 22.0647 5.66818 22.8631 5.9361 23.6195C6.27949 24.5312 6.27949 25.5365 5.9361 26.4481C6.14443 26.4997 6.35795 26.5266 6.57257 26.5283C6.70606 26.5296 6.83907 26.5137 6.96863 26.4811C7.59394 26.333 8.09739 25.8706 8.29802 25.2601C8.29802 25.2601 8.19896 28.5272 12.0082 28.5272H12.0365C11.7499 27.9822 11.6025 27.375 11.6074 26.7593C11.4283 24.336 9.7829 24.0013 9.7829 24.0013M9.16986 24.5903C7.64236 22.7988 6.34128 20.9413 6.15732 18.2588C5.9971 18.7301 5.34648 20.0974 4.31395 20.616C4.31395 20.616 5.61047 19.8334 6.19977 16.7832V16.8067C6.5864 13.7 8.83983 11.4559 11.3527 10.0935C11.5837 9.96612 11.8005 9.8625 12.008 9.76345C10.9733 9.97303 9.89862 9.71974 9.06624 9.07038C9.06624 9.07038 10.5183 10.1405 13.4978 9.16943C12.6869 9.71156 11.0887 10.466 9.62724 11.6868C5.9688 14.8973 8.58543 18.0324 8.58543 18.0324C7.4952 16.994 7.11187 15.4146 7.60479 13.9922C6.82933 15.2769 6.4581 16.7651 6.53939 18.2635C6.63845 20.7339 7.99613 22.8647 9.41985 24.5809C9.84736 25.1208 10.137 25.7566 10.2637 26.4337C10.0211 25.7629 9.6568 25.1428 9.18888 24.6044" fill="white"/>
<path d="M16.2272 12.0682C16.2885 12.1343 16.3498 12.2097 16.411 12.2803L16.4534 12.3322L16.6184 12.5585L16.6561 12.6104C16.7174 12.7047 16.7787 12.8083 16.8399 12.9074C17.2671 13.7626 18.1042 14.3379 19.0556 14.4302C20.0043 14.3372 20.8391 13.7641 21.2666 12.9121C21.3279 12.8083 21.3892 12.7047 21.4551 12.6104L21.4834 12.5679C21.54 12.4877 21.5966 12.4077 21.653 12.3322L21.6908 12.2851C21.7521 12.2096 21.8134 12.1343 21.8793 12.0682L21.9076 12.0399C22.1942 11.7388 22.5577 11.522 22.9588 11.4129L22.7703 11.3138L21.9972 10.8425L21.2052 10.3711L19.0554 11.5497L16.9339 10.3947L16.142 10.8661L15.3689 11.3374L15.1709 11.4506C15.5692 11.547 15.9339 11.7489 16.2269 12.0352L16.2599 12.0682M18.2166 11.9739H19.9987V12.5915C19.8334 12.4316 19.6045 12.3553 19.3763 12.3841V13.2704C19.3741 13.4902 19.426 13.7071 19.5271 13.9022H18.6597C18.7675 13.7105 18.8259 13.4951 18.8293 13.2751V12.3888C18.6012 12.3602 18.3723 12.4365 18.207 12.5962L18.2166 11.9739Z" fill="white"/>
<path d="M18.8816 10.7821V7.17552L16.5857 6.39771L17.1703 9.90049L18.8816 10.7821ZM18.41 8.06183V8.6417L18.2968 8.58981C18.1239 8.53148 17.9637 8.44029 17.8255 8.32111C17.5764 8.16372 17.4053 7.90869 17.3541 7.6186L18.41 8.06183Z" fill="white"/>
<path d="M20.9416 9.90033L21.545 6.40698L19.2491 7.1848V10.7914L20.9416 9.90033ZM19.7441 8.06168L20.7859 7.62316C20.7347 7.91325 20.5634 8.16828 20.3145 8.32567C20.1762 8.44485 20.0161 8.53604 19.8432 8.59437L19.7347 8.64626L19.7441 8.06168Z" fill="white"/>
<path d="M15.6332 19.145C15.8371 19.2113 16.0504 19.2447 16.2649 19.244V19.178C16.2781 19.1362 16.2891 19.0937 16.2979 19.0506C16.3319 18.8623 16.3508 18.6716 16.3545 18.4802C16.2261 18.4036 16.1215 18.2926 16.0528 18.1596C15.9942 17.9977 15.8385 17.8914 15.6662 17.8956C15.4574 17.9131 15.2564 17.9829 15.0816 18.0983C15.0226 18.5219 15.2332 18.9374 15.6096 19.1401" fill="white"/>
<path d="M20.7106 17.2305C20.2862 17.7018 19.4471 18.5034 19.4093 18.5411L19.3575 18.593L16.7221 18.5506C16.7199 18.7685 16.6913 18.9853 16.6372 19.1965V19.2814L19.7722 19.8471C20.0975 19.6208 20.998 18.9608 21.3469 18.7062C21.1318 18.3764 21.0524 17.9761 21.1254 17.589C20.9743 17.4943 20.8405 17.3748 20.7293 17.2353" fill="white"/>
<path d="M21.069 14.0586C20.5564 14.6308 19.8241 14.9565 19.056 14.9543C18.9602 14.9594 18.8642 14.9594 18.7684 14.9543C18.6733 14.9466 18.5788 14.9325 18.4856 14.9119C18.4357 15.1273 18.4538 15.3531 18.5374 15.5578C18.6734 15.8226 18.912 16.0202 19.1975 16.1046L19.306 16.1471V16.265C19.3329 16.7586 19.6859 17.1733 20.1687 17.2787C20.3055 17.1372 20.428 17.01 20.5223 16.9062C20.35 16.5686 20.4168 16.1581 20.6873 15.8925C20.6093 16.4598 20.881 17.0183 21.3756 17.3068L21.5077 17.3681L21.4699 17.5096C21.2913 18.0816 21.5978 18.6922 22.163 18.8909L22.3374 18.957L22.2619 19.1266C22.0262 19.6571 22.2481 20.2793 22.7663 20.5409H24.7133V18.9851C24.1658 18.9137 23.7314 18.489 23.6479 17.9433C23.3536 17.9051 23.0861 17.7527 22.9031 17.5189C22.6894 17.218 22.671 16.82 22.8559 16.5005C22.8603 16.8158 22.9754 17.1196 23.1812 17.3585C23.3507 17.5351 23.5786 17.6439 23.8224 17.665H23.9639V17.8112C23.9891 18.2365 24.2963 18.592 24.7135 18.6787V15.5012C24.7319 15.0053 24.8389 14.5168 25.0293 14.0586H21.069Z" fill="white"/>
<path d="M15.8028 15.5152L15.7462 17.5377L15.9773 17.5707L16.5383 15.6332L16.2555 15.0344L15.8028 15.5152Z" fill="white"/>
<path d="M21.9975 24.7885H22.0541C22.403 24.8876 22.4926 26.1462 23.1053 26.2594C23.1602 26.2651 23.2155 26.2651 23.2702 26.2594C23.4297 26.2602 23.5786 26.1803 23.6663 26.0473C23.6663 26.0473 23.3599 25.5759 23.1289 25.2365C22.8225 24.8074 22.5868 24.2935 22.0116 24.2935H21.9692C21.8613 24.2976 21.7567 24.3319 21.6674 24.3926C21.4767 24.2678 21.2541 24.2006 21.0262 24.1994C20.7641 24.2313 20.5053 24.2866 20.2531 24.3643L18.9802 24.2369C18.8084 24.1961 18.6595 24.0895 18.5653 23.9399V23.9069C18.5653 23.8739 18.5653 23.8362 18.5653 23.8031C18.5821 23.1008 18.1104 22.4802 17.4291 22.3087C17.4291 22.3087 17.4621 22.1107 17.3867 22.0352L17.1038 22.3747L16.1609 21.9033L16.821 22.6717L16.2269 23.3318C16.1708 23.3858 16.1574 23.4704 16.1939 23.5391L16.4343 23.7513L16.7408 23.5674C16.7655 23.5607 16.7916 23.5607 16.8162 23.5674C16.9011 23.5674 17.0283 23.5674 17.1416 23.5674C17.2548 23.5674 17.3725 23.5391 17.3867 23.4259C17.3489 23.8126 16.9906 24.4819 17.2265 25.01L17.4008 25.4108L16.2741 25.2506L15.7556 26.1416C15.5965 26.3817 15.5965 26.6937 15.7556 26.9336L15.9535 27.1787C16.0906 27.0404 16.2052 26.8812 16.293 26.7073L16.2034 26.6083C16.1359 26.5437 16.1258 26.4394 16.1798 26.3632L16.5098 25.8163L17.8392 26.1275L17.9099 26.0096C17.9838 25.8808 18.1249 25.8056 18.273 25.8163C18.3326 25.8118 18.3925 25.8118 18.4521 25.8163C18.8014 25.8869 19.1565 25.9248 19.5127 25.9295C19.9178 25.9699 20.322 25.8459 20.6347 25.5853C21.1061 26.302 22.0915 26.415 22.016 26.7781L21.7567 27.9991C21.9264 27.9991 22.0915 27.9991 22.2281 27.9614L22.4732 26.6885C22.5015 26.5517 22.5251 26.3632 22.5251 26.3632C22.3412 26.2077 22.1822 26.0248 22.0537 25.821C21.8794 25.491 21.9736 25.3166 21.8133 24.8781C21.8453 24.8188 21.9064 24.7811 21.9736 24.7791M16.9955 22.9877C16.9331 22.9854 16.8843 22.9329 16.8867 22.8703C16.8867 22.8686 16.8868 22.8668 16.887 22.8651C16.8894 22.8027 16.9419 22.7539 17.0044 22.7563C17.0062 22.7563 17.0079 22.7565 17.0096 22.7566C17.0735 22.7566 17.1252 22.8083 17.1252 22.8722C17.1252 22.936 17.0735 22.9877 17.0096 22.9877" fill="white"/>
<path d="M15.2042 25.9291C15.2042 25.9291 15.6473 25.7453 15.6756 25.6179L15.619 25.4717C15.5683 25.388 15.5863 25.2799 15.6614 25.2171L16.1328 24.8871L16.9295 25.0379C16.8399 24.9166 16.7933 24.769 16.7974 24.6182L16.0385 24.458L15.3218 24.8918C15.0654 25.0819 14.972 25.4225 15.0956 25.7168L15.2042 25.9291Z" fill="white"/>
<path d="M20.8286 28.0181H21.3C21.3 28.0181 21.7102 26.8206 21.7338 26.7829C21.4291 26.6408 21.1316 26.4835 20.8428 26.3115C20.9654 26.4953 21.2577 26.6982 21.2011 26.8584L20.8286 28.0181Z" fill="white"/>
<path d="M24.7131 20.9229H13.3984V25.1659C13.3984 26.9055 14.6572 27.9944 16.5146 27.9944C18.0657 27.9944 18.4757 28.0558 19.0556 28.6262C19.4207 28.235 19.9348 28.0174 20.4699 28.0275V27.9614L20.8424 26.8725L20.2389 26.1841C19.9961 26.2572 19.7425 26.2876 19.4894 26.2737C19.1125 26.269 18.7369 26.2295 18.3674 26.1558C18.3282 26.1514 18.2886 26.1514 18.2495 26.1558C18.1976 26.1558 18.1976 26.1558 18.1834 26.1841L18.1127 26.302L17.9853 26.5141L17.7402 26.4575L16.6559 26.203L16.5052 26.4481V26.4764L16.6372 26.6226L16.5806 26.8111C16.4817 27.0419 16.3393 27.2517 16.161 27.4287L15.8876 27.721L15.6424 27.4099L15.4586 27.1789C15.2615 26.9201 15.2115 26.578 15.3266 26.2737L15.0201 26.4011L14.8833 26.1041L14.789 25.892C14.5956 25.4464 14.7388 24.9263 15.1332 24.6426L16.0053 24.1712L16.835 24.3362C16.835 24.256 16.8869 23.9731 16.9105 23.8977H16.8633L16.3919 24.0767L15.9206 23.7561C15.8242 23.661 15.8232 23.5058 15.9184 23.4095C15.9192 23.4087 15.9198 23.408 15.9206 23.4073L16.3684 22.7283L15.2322 21.314L16.9765 22.0307L17.0945 21.8892L17.3301 21.6063L17.5989 21.8609C17.669 21.9288 17.718 22.0156 17.7404 22.1107C18.2117 22.2992 19.0792 22.8508 19.1546 23.7466L18.8859 23.855C18.919 23.8999 18.9627 23.9354 19.0133 23.9588L20.2579 24.0815L20.3711 24.0484C20.5825 23.9693 20.8056 23.9263 21.0312 23.9211C21.2565 23.9227 21.4787 23.9741 21.6818 24.0719C21.7713 24.0396 21.865 24.0206 21.96 24.0153H22.0213C22.5732 24.0643 23.0559 24.4064 23.2848 24.911L23.4216 25.109C23.6525 25.439 23.959 25.9151 23.9684 25.9387L24.1052 26.1508L23.9356 26.344C23.7793 26.5481 23.5373 26.6682 23.2802 26.6693C23.2049 26.6764 23.1291 26.6764 23.054 26.6693C22.9731 26.6371 22.897 26.5943 22.8277 26.542C22.8277 26.608 22.8277 26.6882 22.79 26.7541L22.5732 27.8902C23.858 27.6358 24.7664 26.4835 24.7135 25.1747V20.9229H24.7131Z" fill="#FCE527"/>
<path d="M13.3986 20.5785H22.2098C21.851 20.2019 21.7279 19.6587 21.8892 19.1642C21.7699 19.1071 21.6588 19.0341 21.5592 18.9473C21.215 19.2019 20.1449 19.9657 19.8903 20.159L19.8337 20.1967L16.3828 19.5744H16.3121C16.2006 19.5808 16.0888 19.5808 15.9773 19.5744C15.9442 19.7277 15.8089 19.8376 15.652 19.8384H15.5954C15.41 19.8071 15.2843 19.6329 15.3126 19.447V19.3716C14.8682 19.0489 14.6572 18.4936 14.7751 17.9573L14.8129 17.9148L14.8648 17.8771C14.8648 17.8771 14.9308 17.8299 15.0203 17.7827L14.7704 17.745C14.6775 17.7282 14.6148 17.6404 14.6289 17.547C14.6431 17.4544 14.7295 17.3908 14.8223 17.4049C14.8239 17.4052 14.8255 17.4054 14.827 17.4057L15.4258 17.5L15.4824 15.3974L16.3734 14.4545L16.9297 15.6236L16.3215 17.6272L16.8495 17.7121C16.9424 17.729 17.0051 17.8167 16.991 17.9101C16.977 17.9926 16.905 18.0527 16.8213 18.0516H16.793L16.364 17.9808V18.0139C16.4116 18.098 16.4841 18.1656 16.5713 18.2071L19.202 18.2496L19.8762 17.5848C19.3623 17.4073 18.9958 16.9508 18.9333 16.4109C18.6057 16.2864 18.3378 16.042 18.1837 15.7273C18.0558 15.4293 18.0342 15.0965 18.1224 14.7844C17.7073 14.6218 17.3325 14.3708 17.024 14.0488H13.0969C13.2819 14.5114 13.384 15.0029 13.3986 15.5009V20.5785Z" fill="#FCE527"/>
<path d="M17.0332 22.766C16.9709 22.7608 16.9162 22.8071 16.9109 22.8693C16.9107 22.8711 16.9106 22.8728 16.9106 22.8745C16.9054 22.9368 16.9516 22.9915 17.0139 22.9968C17.0156 22.997 17.0173 22.9972 17.019 22.9972C17.0829 22.9972 17.1346 22.9454 17.1346 22.8816C17.1346 22.8178 17.0829 22.766 17.019 22.766" fill="#2F2F2F"/>
<path d="M24.7133 30.4828L24.0626 30.233L24.2417 29.5588L24.4397 28.8232C23.5504 29.2789 22.6188 29.6467 21.6581 29.9217C21.1867 30.0537 20.8473 30.1149 20.8473 30.1149V30.6146C20.2688 30.7086 19.6842 30.7589 19.0982 30.7655H19.0558C18.4698 30.7592 17.8852 30.7088 17.3068 30.6146V30.1149C17.3068 30.1149 16.9579 30.0536 16.4959 29.9217C15.5352 29.6468 14.6036 29.2791 13.7143 28.8232L13.9076 29.5588L14.0914 30.233L13.4361 30.4828L12.71 30.7515C13.686 31.265 14.7051 31.6925 15.7555 32.0292L15.5057 32.7081C16.6382 33.14 17.8439 33.3482 19.0556 33.321H19.0839C20.3004 33.3501 21.5111 33.1419 22.648 32.7081L22.3982 32.0292C23.4455 31.6943 24.4614 31.2683 25.4343 30.7562L24.7133 30.4828ZM13.4788 30.7987L14.5489 30.4451L14.2331 29.4127C14.9231 29.7574 15.6406 30.0443 16.3781 30.2707L15.8596 31.685C15.0389 31.4682 14.2415 31.1713 13.4788 30.7987ZM19.0559 32.9674C18.0166 32.9562 16.9832 32.8087 15.9821 32.5289L16.6186 30.8081C17.4159 31.007 18.2341 31.1098 19.0559 31.1146H19.1078C19.925 31.107 20.7385 31.0026 21.5311 30.8034L22.1487 32.5289C21.1444 32.8081 20.1078 32.9538 19.0654 32.9627M22.2712 31.685L21.7526 30.2707C22.49 30.0443 23.2075 29.7574 23.8977 29.4127L23.5818 30.4452L24.6519 30.7988C23.888 31.1721 23.0889 31.469 22.2664 31.6852" fill="#2F2F2F"/>
<path d="M19.0557 3.62095C20.1225 3.58888 21.1706 3.9068 22.0399 4.52613C22.1813 3.82708 22.448 3.15948 22.8272 2.55556L21.7571 2.6782L21.1819 1.49017L20.1071 2.04173L19.0559 1.01392L18.0188 2.04173L16.9487 1.49017L16.3924 2.6782L15.3223 2.55556C15.6952 3.16074 15.9554 3.82834 16.0907 4.52613C16.9548 3.91136 17.9953 3.59375 19.0557 3.62095ZM16.3449 3.09297L16.6419 3.12599L16.7693 2.85729L17.1417 2.0606L17.8348 2.41893L18.1035 2.55572L18.3156 2.35776L19.0557 1.59881L19.8147 2.35776L20.0268 2.56987L20.2955 2.43308L20.9838 2.07475L21.361 2.87144L21.4884 3.14014L21.7854 3.10713L22.0682 3.07411C21.9541 3.33322 21.8565 3.59941 21.7759 3.87079C20.0753 2.99958 18.0597 2.99958 16.359 3.87079C16.2781 3.59941 16.1804 3.33338 16.0668 3.07411L16.3449 3.09297Z" fill="#2F2F2F"/>
<path d="M34.6132 17.5285C36.3292 17.5285 36.9043 15.7842 36.9279 15.7087L37.1212 15.0958H36.48C35.1243 15.0497 33.8581 14.4081 33.0196 13.3421L32.8923 13.1818C32.0154 12.0693 31.1857 11.0084 29.6959 10.5229C29.7551 10.4709 29.8181 10.4235 29.8845 10.3814C30.5911 9.98063 31.0884 9.29227 31.2469 8.49559C31.3267 7.77657 31.1239 7.05473 30.6811 6.48257L30.2098 5.89327L29.8986 6.60049C29.8986 6.64294 29.3753 7.76494 28.3192 7.76494H28.239H28.0317C28.0854 7.02029 27.8098 6.28949 27.2774 5.76607C26.6411 5.11686 25.768 4.75429 24.8589 4.76183C24.69 4.76105 24.5213 4.77363 24.3545 4.79957L23.6331 4.94108L24.0762 5.52566C24.4251 5.99704 24.741 6.81275 24.3685 7.24639C24.19 7.40174 23.9858 7.52453 23.765 7.60944C23.2937 7.83097 22.6147 8.14685 22.6147 8.93882C22.6147 9.45265 23.0155 9.99006 23.7367 10.4427C25.8724 11.7863 27.1876 13.1866 27.7581 14.7328C28.6397 17.09 27.4894 18.4712 26.3721 19.1832L25.8724 19.5038L26.3109 19.9045C26.702 20.2379 27.1856 20.4435 27.6969 20.4938C27.8477 20.4938 27.9892 20.4938 28.126 20.4938C28.5636 20.4956 28.9989 20.4321 29.4178 20.3053C29.3134 20.4877 29.1919 20.6599 29.0548 20.8192C28.4192 21.5583 27.4777 21.9621 26.5043 21.9129H26.0847L26.0516 22.3325C26.0479 22.9205 26.3053 23.48 26.7542 23.86C26.8718 23.9631 27.0035 24.049 27.1455 24.1146C26.449 24.7933 26.0504 25.7208 26.0377 26.6933C26.0494 27.2436 25.9333 27.789 25.6982 28.2868L25.2268 28.994H26.066C27.4488 28.994 28.5081 28.6153 29.2434 27.8579C29.6252 27.4566 29.9091 26.9727 30.0731 26.4436C30.3456 26.6732 30.6689 26.8348 31.016 26.915C31.1815 26.9532 31.3508 26.9722 31.5204 26.9716C31.7745 26.9708 32.0277 26.9408 32.2747 26.882L32.8074 26.7405L32.5717 26.2408C32.2764 25.4438 32.2764 24.5674 32.5717 23.7704C32.7465 23.2498 32.8681 22.7127 32.9347 22.1674C33.3593 22.3838 33.8302 22.4938 34.3066 22.488C35.0845 22.4996 35.8141 22.1117 36.2394 21.4602L36.4987 20.9888L36.0273 20.7909C34.4479 20.1355 34.0992 18.3771 34.0331 17.4247C34.1885 17.4563 34.3462 17.4752 34.5045 17.4813L34.6132 17.5285ZM35.8625 21.2528C35.5254 21.7629 34.9511 22.0652 34.3397 22.0542C33.6531 22.0949 32.9887 21.8039 32.553 21.2717C32.567 22.0743 32.436 22.8727 32.1663 23.6289C31.822 24.5403 31.822 25.546 32.1663 26.4574C31.9566 26.5093 31.7414 26.5362 31.5252 26.5376C31.3917 26.5386 31.2587 26.5227 31.1291 26.4905C30.5038 26.3424 30.0003 25.8799 29.7997 25.2694C29.7997 25.2694 29.8988 28.5365 26.0895 28.5365H26.0612C26.3502 27.9923 26.4993 27.3848 26.495 26.7686C26.6741 24.3454 28.3148 24.0106 28.3148 24.0106C27.8719 23.9616 27.4461 23.8116 27.0702 23.5721C26.727 23.2837 26.5257 22.8606 26.5186 22.4124C27.6299 22.4668 28.704 22.0037 29.4274 21.1583C29.8588 20.6641 30.1502 20.0635 30.2712 19.4187C29.6646 19.8756 28.918 20.1074 28.1592 20.074C28.0365 20.074 27.9046 20.074 27.7725 20.074C27.3626 20.0325 26.9749 19.8682 26.66 19.6027C28.112 18.6598 29.1257 17.0522 28.2252 14.6054C27.5038 12.649 25.7642 11.1828 24.0152 10.0842C23.4353 9.7212 23.11 9.31586 23.11 8.97168C23.11 8.15141 24.2745 8.12783 24.7506 7.55739C25.3021 6.91621 24.958 5.88383 24.4771 5.2568C24.6141 5.23321 24.7531 5.2222 24.8921 5.22378C25.6774 5.2156 26.432 5.52896 26.9806 6.09122C27.5342 6.61951 27.7485 7.41132 27.5369 8.14669L27.7914 8.19858C27.9471 8.22688 28.1048 8.2426 28.2628 8.24575H28.3666C29.7478 8.24575 30.3654 6.80316 30.3654 6.80316C30.3654 6.80316 31.8316 8.60879 29.6724 10.0231C29.2999 10.2635 29.1349 10.4945 29.201 10.7303L29.234 10.8858L29.3897 10.9141C30.9549 11.3385 31.7469 12.418 32.7181 13.6485C33.6328 14.7991 35.0022 15.4956 36.4707 15.5579H36.499C36.499 15.5579 36.0276 17.0571 34.6132 17.0571H34.5471C34.2047 17.0602 33.8682 16.9672 33.5759 16.7884C33.5759 16.7884 33.3261 20.1874 35.8624 21.2435" fill="#2F2F2F"/>
<path d="M31.6101 10.7304C32.1371 11.0309 32.5937 11.4408 32.9489 11.9326C33.2163 12.3481 33.6 12.676 34.052 12.8755C34.2237 12.933 34.4038 12.9617 34.5847 12.9604C35.3047 12.9584 35.9632 12.5546 36.2913 11.9139L36.5647 11.3057L35.9 11.268C35.1871 11.1387 34.5399 10.7694 34.066 10.2214C33.7126 9.83765 33.2159 9.61753 32.6942 9.61328C32.2923 9.6202 31.9003 9.73938 31.5628 9.95746L30.9546 10.3865L31.6101 10.7304ZM32.6945 10.0609C33.0926 10.0644 33.4709 10.2356 33.7363 10.5323C34.2902 11.1615 35.0448 11.5796 35.872 11.7156C35.6165 12.1897 35.1236 12.4876 34.5849 12.4934C34.4517 12.4937 34.3193 12.4714 34.1935 12.4274C33.4346 12.1728 33.1612 11.0131 31.8363 10.32C32.0953 10.1531 32.3958 10.0615 32.7038 10.056" fill="#2F2F2F"/>
<path d="M31.9119 16.7881C31.5252 13.6814 29.2718 11.4373 26.7637 10.0749C26.5327 9.95222 26.3159 9.84388 26.1083 9.74483C27.1446 9.9552 28.221 9.70191 29.0548 9.05176C29.0548 9.05176 27.6028 10.1219 24.6233 9.15081C25.4483 9.68351 27.0465 10.4379 28.5127 11.6635C32.1664 14.874 29.5545 18.009 29.5545 18.009C30.6447 16.9707 31.0281 15.3913 30.5352 13.9688C31.309 15.2542 31.6801 16.7419 31.6005 18.2402C31.5015 20.7106 30.1438 22.8413 28.7154 24.5575C28.2896 25.0979 28.0015 25.7338 27.8762 26.4103C28.1217 25.747 28.4877 25.1349 28.9558 24.6047C30.4833 22.8132 31.7844 20.9557 31.9636 18.2732C32.1238 18.7445 32.7744 20.1118 33.807 20.6304C33.807 20.6304 32.5057 19.8478 31.9211 16.7976" fill="#2F2F2F"/>
<path d="M12.4556 28.2859C12.2269 27.804 12.1063 27.2777 12.102 26.7442C12.0893 25.7718 11.6907 24.8441 10.9942 24.1655C11.1363 24.1001 11.2681 24.0144 11.3855 23.9109C11.8355 23.5319 12.0931 22.9718 12.088 22.3834L12.0597 21.9638H11.6354C10.6635 22.0114 9.72408 21.6078 9.08965 20.8701C8.93745 20.7061 8.80176 20.5277 8.68415 20.3374C9.10144 20.464 9.53524 20.5275 9.97124 20.5259C10.108 20.5259 10.2494 20.5259 10.4003 20.5259C10.912 20.4736 11.3956 20.2663 11.7863 19.9319L12.2248 19.5311L11.7251 19.2105C10.6079 18.4939 9.46229 17.1362 10.3392 14.7601C10.9096 13.2138 12.225 11.8136 14.3605 10.4701C15.0819 9.99872 15.4778 9.4753 15.4778 8.96618C15.4778 8.17421 14.8177 7.86305 14.3322 7.6368C14.1113 7.55221 13.907 7.42926 13.7287 7.27375C13.3515 6.83996 13.6674 6.00553 14.0163 5.55302L14.4641 4.96844L13.738 4.82693C13.5728 4.80115 13.4056 4.78857 13.2383 4.7892C12.3291 4.78102 11.4558 5.1436 10.8198 5.79343C10.3065 6.31748 10.0437 7.03728 10.0984 7.76872H9.89106H9.81558C8.75491 7.76872 8.25507 6.64672 8.2362 6.60427L7.9392 5.90176L7.46782 6.49106C7.02805 7.06448 6.8271 7.78585 6.90682 8.50408C7.06484 9.30108 7.56231 9.9896 8.26922 10.3899C8.33589 10.4317 8.39894 10.4791 8.45774 10.5314C6.96798 11.0028 6.13828 12.0778 5.2614 13.1903L5.13405 13.3506C4.29444 14.4178 3.02621 15.0597 1.669 15.1043L0.999512 15.0854L1.19747 15.6983C1.19747 15.7738 1.79148 17.5181 3.5075 17.5181H3.5924C3.75073 17.5117 3.90844 17.4928 4.06378 17.4615C3.99303 18.4044 3.64413 20.1723 2.06491 20.8277L1.59353 21.0256L1.8528 21.497C2.27795 22.1517 3.00986 22.5418 3.79035 22.5294C4.26519 22.5342 4.73437 22.4243 5.15747 22.2088C5.22367 22.754 5.34537 23.2911 5.52052 23.8117C5.8158 24.6087 5.8158 25.4851 5.52052 26.2821L5.28483 26.7818L5.82224 26.9233C6.06941 26.9821 6.32255 27.0122 6.57648 27.0129C6.74629 27.0137 6.91547 26.9947 7.08087 26.9563C7.4282 26.8765 7.75146 26.7148 8.02379 26.485C8.18636 27.0136 8.46875 27.4975 8.84878 27.8993C9.5843 28.6566 10.6434 29.0354 12.0262 29.0354H12.8654L12.4556 28.2859ZM12.0503 28.5452C8.24108 28.5452 8.34013 25.2781 8.34013 25.2781C8.13935 25.8886 7.63606 26.3508 7.01075 26.4991C6.88135 26.5317 6.74818 26.5475 6.61469 26.5463C6.40007 26.5447 6.18655 26.5178 5.97822 26.4661C6.32161 25.5545 6.32161 24.5491 5.97822 23.6375C5.71045 22.8811 5.58105 22.0827 5.5963 21.2803C5.16109 21.8132 4.49632 22.1044 3.80954 22.0629C3.19854 22.0729 2.62449 21.7709 2.28676 21.2615C4.82305 20.2055 4.57792 16.8063 4.57792 16.8063C4.28579 16.9851 3.94931 17.0782 3.60671 17.075H3.49822C2.08393 17.075 1.6124 15.5758 1.6124 15.5758H1.6407C3.13093 15.5247 4.52289 14.8192 5.44521 13.6477C6.4117 12.4172 7.20839 11.3377 8.77362 10.9133L8.92912 10.885L8.96214 10.7295C9.00459 10.4891 8.8395 10.2581 8.49076 10.0223C6.33151 8.60801 7.79769 6.80238 7.79769 6.80238C7.79769 6.80238 8.41057 8.24497 9.79656 8.24497H9.89561C10.0538 8.24151 10.2113 8.22579 10.367 8.1978L10.6215 8.14591C10.4088 7.4107 10.6233 6.6181 11.1778 6.09044C11.7262 5.52818 12.481 5.21482 13.2663 5.223C13.4053 5.22127 13.5442 5.23227 13.6813 5.25602C13.2099 5.87833 12.861 6.91543 13.4125 7.55661C13.8839 8.10818 15.0531 8.13176 15.0531 8.9709C15.0531 9.31979 14.7278 9.72042 14.1479 10.0835C12.3989 11.1866 10.664 12.6481 9.93791 14.6046C9.03745 17.0467 10.0558 18.6684 11.5079 19.6019C11.1915 19.8681 10.802 20.0324 10.3906 20.0733C10.2538 20.0733 10.1266 20.0733 9.99923 20.0733C9.24044 20.1066 8.49375 19.8748 7.88715 19.4179C8.0079 20.0618 8.29752 20.6621 8.72629 21.1575C9.44782 21.9941 10.5126 22.4544 11.6162 22.4069C11.6047 22.8606 11.3943 23.2864 11.041 23.5713C10.6638 23.8243 10.2329 23.9856 9.78225 24.0427C9.78225 24.0427 11.4228 24.3774 11.6068 26.8007C11.6019 27.4164 11.7492 28.0236 12.0358 28.5686L12.0503 28.5452Z" fill="#2F2F2F"/>
<path d="M3.54559 12.9506C3.72656 12.9519 3.90659 12.9233 4.07829 12.8657C4.53064 12.6665 4.91428 12.3385 5.18141 11.9228C5.5366 11.431 5.9932 11.0211 6.52023 10.7206L7.18029 10.367L6.5674 9.93793C6.22983 9.71969 5.83785 9.60051 5.43597 9.59375C4.91428 9.598 4.41759 9.81812 4.06414 10.2019C3.59024 10.7499 2.94308 11.1192 2.2302 11.2484L1.56543 11.3145L1.83885 11.9227C2.16841 12.5616 2.82657 12.9634 3.54543 12.9645M4.38945 10.5463C4.65595 10.2483 5.03629 10.0769 5.43597 10.0749C5.75059 10.072 6.05971 10.1587 6.327 10.3247C4.9929 11.0367 4.71932 12.1775 3.9698 12.4321C3.84574 12.4761 3.71493 12.4984 3.58317 12.4981C3.04434 12.4932 2.55095 12.1951 2.29608 11.7203C3.12154 11.5832 3.87436 11.1653 4.42702 10.537" fill="#2F2F2F"/>
<path d="M6.53917 18.2633C6.45788 16.7649 6.8291 15.2768 7.60456 13.992C7.11165 15.4146 7.49497 16.994 8.58521 18.0322C8.58521 18.0322 5.96874 14.8972 9.62702 11.6867C11.0885 10.4657 12.6867 9.71142 13.5117 9.17401C10.5369 10.1452 9.08017 9.07495 9.08017 9.07495C9.91255 9.72431 10.9872 9.97746 12.022 9.76802C11.8146 9.86708 11.5976 9.97541 11.3666 10.0981C8.85392 11.4605 6.60033 13.7046 6.2137 16.8113V16.7877C5.62912 19.838 4.32788 20.6205 4.32788 20.6205C5.36026 20.1114 6.01088 18.7583 6.17125 18.2633C6.34562 20.9459 7.65158 22.8034 9.18379 24.5949C9.65186 25.1331 10.0162 25.7533 10.2586 26.4241C10.1319 25.7472 9.84227 25.1112 9.41476 24.5713C8.00047 22.8553 6.6332 20.7196 6.5343 18.2539" fill="#2F2F2F"/>
<path d="M18.207 11.9795V12.5971C18.3723 12.4372 18.6012 12.3609 18.8293 12.3897V13.276C18.8259 13.4958 18.7676 13.7114 18.6597 13.9031H19.5271C19.4201 13.7111 19.3619 13.4958 19.3575 13.276V12.3897C19.5856 12.3611 19.8146 12.4373 19.9798 12.5971V11.9795H18.207Z" fill="#2F2F2F"/>
<path d="M17.8254 8.32531C17.9638 8.44449 18.1238 8.53568 18.2968 8.59402L18.41 8.6459V8.06132L17.3682 7.6228C17.4194 7.91289 17.5906 8.16792 17.8395 8.32531" fill="#2F2F2F"/>
<path d="M20.3052 8.32531C20.5545 8.16839 20.7259 7.91321 20.7766 7.6228L19.7347 8.06132V8.64118L19.8432 8.5893C20.0165 8.53159 20.1767 8.4404 20.3146 8.32059" fill="#2F2F2F"/>
<path d="M22.186 5.96336C22.186 5.08176 20.7056 4.28979 19.0698 4.28979C17.434 4.28979 15.9537 5.08176 15.9537 5.96336L15.9867 6.18018L16.642 9.95167L15.9867 10.3336L14.2754 11.3142C14.2754 11.3142 13.8935 11.5122 13.7144 11.6301C13.0685 12.1015 12.9318 12.7332 13.3042 13.0019C13.3974 12.3581 13.9598 11.887 14.6101 11.9082C15.1527 11.9229 15.6557 12.1963 15.9631 12.6438C16.0554 12.7578 16.1405 12.8774 16.2177 13.0021C16.3167 13.1623 16.4156 13.3038 16.5099 13.4406H12.1539C12.5212 14.0739 12.7358 14.7841 12.7809 15.515V25.1747C12.7809 27.5319 14.5818 28.635 16.5524 28.635C18.0563 28.635 18.259 28.5643 19.0934 29.394C19.9184 28.5643 20.1212 28.635 21.6297 28.635C23.5767 28.635 25.3776 27.5178 25.3776 25.1747V15.5008C25.4227 14.77 25.6373 14.0598 26.0046 13.4265H21.6061C21.7052 13.2897 21.804 13.1483 21.8984 12.9879C21.9767 12.864 22.0618 12.7444 22.1529 12.6296C22.461 12.1828 22.9635 11.9095 23.5059 11.8941C24.1554 11.8751 24.7166 12.345 24.8119 12.9878C25.1891 12.7191 25.0523 12.0449 24.4017 11.6159C24.2414 11.4933 23.8501 11.3142 23.8501 11.3142L22.1529 10.3241L21.4976 9.94223L22.1529 6.17074L22.186 5.96336ZM16.5853 6.39716L18.8811 7.17497V10.7815L17.1698 9.89994L16.5853 6.39716ZM17.0568 14.0581C17.3651 14.3801 17.74 14.631 18.1552 14.7936C18.067 15.1055 18.0885 15.4385 18.2165 15.7365C18.3703 16.0514 18.6384 16.2959 18.966 16.4201C19.0286 16.9601 19.3951 17.4165 19.909 17.594L19.2206 18.2446L16.59 18.2022C16.5027 18.1605 16.4302 18.0931 16.3826 18.0089V17.9759L16.8117 18.0467H16.84C16.9236 18.0478 16.9958 17.9879 17.0096 17.9052C17.0239 17.8118 16.9612 17.7239 16.8681 17.7072L16.3401 17.6223L16.9247 15.5999L16.3684 14.4307L15.4774 15.3736L15.4208 17.4762L14.8126 17.3819C14.7203 17.3652 14.6321 17.4264 14.6155 17.5187C14.6152 17.5203 14.615 17.5218 14.6147 17.5234C14.6004 17.6168 14.6631 17.7047 14.7562 17.7214L15.006 17.7591C14.9164 17.811 14.8552 17.8487 14.8505 17.8582L14.8128 17.9148V17.9761C14.6949 18.5124 14.9059 19.0677 15.3502 19.3904V19.4658C15.3219 19.6517 15.4477 19.8259 15.6331 19.8572H15.6897C15.8466 19.8562 15.9818 19.7465 16.015 19.5932C16.1265 19.5998 16.2382 19.5998 16.3497 19.5932H16.4205L19.8714 20.2155L19.928 20.1778C20.2014 19.9845 21.2528 19.2349 21.5968 18.9662C21.6965 19.053 21.8075 19.1259 21.9268 19.183C21.7655 19.6775 21.8886 20.2207 22.2474 20.5973H13.3985V15.501C13.379 15.0052 13.2719 14.5169 13.0826 14.0584H17.0568V14.0581ZM21.2997 18.7017C20.9508 18.961 20.0503 19.6163 19.725 19.8426L16.59 19.2769V19.1919C16.6439 18.9808 16.6724 18.764 16.6749 18.546L19.3102 18.5885L19.3621 18.5366C19.3998 18.4989 20.239 17.688 20.6633 17.2259C20.7745 17.3652 20.9085 17.4847 21.0594 17.5795C20.9865 17.9666 21.0659 18.367 21.2809 18.6968M16.0761 18.1596C16.1449 18.2924 16.2494 18.4036 16.3779 18.4802C16.3739 18.6715 16.3551 18.8622 16.3213 19.0506C16.3213 19.093 16.3213 19.1355 16.2882 19.178V19.244C16.0738 19.2448 15.8606 19.2113 15.6565 19.1449C15.2801 18.9421 15.0694 18.5265 15.1285 18.1031C15.2977 17.9962 15.4901 17.9316 15.6895 17.9146C15.8604 17.911 16.0144 18.0174 16.0714 18.1786M15.7556 17.5325L15.8074 15.5101L16.2788 15.0387L16.5617 15.6327L16.0007 17.5703L15.7556 17.5325ZM21.2997 28.008H20.8283L21.2008 26.8719C21.2574 26.7117 20.9651 26.5041 20.8424 26.3203C21.1313 26.4926 21.4286 26.6499 21.7335 26.7917C21.7335 26.8294 21.2997 28.0269 21.2997 28.0269M22.4735 26.7068L22.2284 27.9797C22.0729 27.9797 21.9078 28.0127 21.757 28.0175L22.0163 26.7964C22.0918 26.4334 21.1159 26.325 20.635 25.6037C20.3226 25.8647 19.9181 25.9887 19.513 25.9478C19.1568 25.9431 18.8016 25.9052 18.4524 25.8346C18.3928 25.8299 18.3329 25.8299 18.2733 25.8346C18.1252 25.8239 17.9841 25.8991 17.9102 26.0279L17.8395 26.1458L16.5101 25.8346L16.1801 26.3815C16.1282 26.4582 16.1379 26.5612 16.2037 26.6266L16.2933 26.7256C16.2055 26.8997 16.0911 27.0587 15.9538 27.197L15.7559 26.933C15.5967 26.6929 15.5967 26.381 15.7559 26.1411L16.2838 25.25L17.4106 25.4103L17.2362 25.0095C17.0005 24.4815 17.3588 23.812 17.3964 23.4254C17.3964 23.5433 17.2738 23.5669 17.1513 23.5669C17.0286 23.5669 16.9109 23.5669 16.826 23.5669C16.8013 23.5598 16.7752 23.5598 16.7505 23.5669L16.4441 23.7507L16.2272 23.5386C16.1908 23.4699 16.2041 23.3851 16.2603 23.3312L16.8165 22.7042L16.1565 21.9358L17.0994 22.4072L17.3823 22.0677C17.4577 22.1432 17.4247 22.3411 17.4247 22.3411C18.106 22.5127 18.5777 23.1332 18.5609 23.8356C18.5609 23.8686 18.5609 23.9016 18.5609 23.9394V23.9724C18.6549 24.1219 18.8039 24.2285 18.9758 24.2694L20.2487 24.3967C20.5011 24.3189 20.7597 24.2637 21.0218 24.2318C21.2498 24.2329 21.4725 24.3001 21.663 24.4251C21.7522 24.3642 21.8569 24.3298 21.9647 24.326H22.0072C22.5776 24.326 22.818 24.8445 23.1245 25.2689C23.3554 25.5942 23.6619 26.0797 23.6619 26.0797C23.5742 26.2129 23.4253 26.2926 23.2658 26.2918C23.211 26.2973 23.1556 26.2973 23.1009 26.2918C22.488 26.1786 22.3984 24.92 22.0496 24.821H21.993C21.9257 24.823 21.8647 24.8607 21.8328 24.92C21.993 25.3491 21.8989 25.5235 22.0732 25.8629C22.2017 26.0667 22.3608 26.2496 22.5446 26.4051C22.5446 26.4051 22.521 26.5889 22.4927 26.7304M15.6236 25.4857L15.6802 25.632C15.6425 25.7593 15.2089 25.9431 15.2089 25.9431L15.1145 25.7357C14.9909 25.4414 15.0843 25.1008 15.3408 24.9107L16.0574 24.4769L16.8164 24.6372C16.8123 24.7878 16.8587 24.9356 16.9485 25.0568L16.1518 24.906L15.6804 25.236C15.6052 25.2988 15.5873 25.407 15.6379 25.4906M22.6056 27.8948L22.8272 26.7539C22.8272 26.6879 22.8507 26.6077 22.8602 26.5418C22.9238 26.5692 22.9902 26.5898 23.0581 26.6032C23.1334 26.6102 23.2092 26.6102 23.2844 26.6032C23.5414 26.6021 23.7834 26.4819 23.9397 26.2779L24.1094 26.0846L23.9726 25.8725C23.9726 25.8725 23.6567 25.3728 23.4257 25.0428L23.2937 24.8449C23.0647 24.3405 22.582 23.9982 22.0301 23.9491H21.9688C21.8739 23.9541 21.7802 23.9732 21.6907 24.0057C21.4877 23.9078 21.2655 23.8562 21.0401 23.8549C20.8144 23.8601 20.5913 23.9032 20.38 23.9823L20.2668 24.0153L19.0222 23.8927C18.9712 23.8678 18.9275 23.8306 18.8948 23.7842L19.1635 23.6757C19.088 22.7799 18.2206 22.2284 17.7492 22.0399C17.7278 21.943 17.6788 21.8545 17.6077 21.7853L17.339 21.5307L17.1033 21.8136L16.9854 21.9551L15.2411 21.2385L16.3725 22.6527L15.9247 23.3317C15.8283 23.4268 15.8274 23.582 15.9225 23.6784C15.9233 23.6791 15.9239 23.6798 15.9247 23.6806L16.3961 24.0012L16.8675 23.8221H16.9147C16.9147 23.8928 16.8628 24.1804 16.8392 24.2606L16.0095 24.0957L15.1373 24.567C14.7186 24.8626 14.5801 25.4206 14.812 25.8777L14.9111 26.0898L15.0479 26.3868L15.3543 26.2595C15.2392 26.5637 15.289 26.9058 15.4864 27.1646L15.6702 27.3956L15.9153 27.7068L16.1887 27.4145C16.3673 27.2377 16.5098 27.028 16.6084 26.7969L16.665 26.6084L16.5329 26.4621V26.4338L16.6837 26.1887L17.7679 26.4433L18.0131 26.4999L18.1451 26.283L18.2159 26.1651C18.2159 26.1415 18.2159 26.1368 18.2819 26.1368H18.3999C18.7695 26.2106 19.145 26.25 19.5218 26.2547C19.775 26.2686 20.0286 26.2384 20.2714 26.1651L20.8418 26.8723L20.4693 27.9708V28.0368C19.9343 28.0267 19.4201 28.2443 19.055 28.6355C18.4752 28.0604 18.0697 28.0038 16.514 28.0038C14.6565 28.0038 13.3979 26.9148 13.3979 25.1752V20.9322H24.7125V25.1752C24.7661 26.481 23.8627 27.6322 22.5816 27.8907M25.0288 14.0581C24.8383 14.5162 24.7312 15.0047 24.713 15.5006V18.6734C24.3009 18.586 23.9968 18.2357 23.9682 17.8154V17.6692H23.8267C23.5828 17.6481 23.355 17.5393 23.1855 17.3627C22.977 17.1231 22.86 16.8176 22.8555 16.5C22.6531 16.8307 22.6735 17.2514 22.9073 17.5607C23.0904 17.7943 23.358 17.9467 23.6521 17.985C23.7352 18.5294 24.1672 18.9537 24.7128 19.0269V20.5826H22.7658C22.2476 20.321 22.0257 19.6989 22.2614 19.1684L22.3369 18.9987L22.1625 18.9327C21.5973 18.7339 21.2908 18.1232 21.4695 17.5514L21.5072 17.4099L21.3751 17.3486C20.8805 17.0599 20.6088 16.5016 20.6868 15.9343C20.4162 16.1999 20.3494 16.6102 20.5218 16.948C20.4275 17.0517 20.305 17.1836 20.1682 17.3204C19.6838 17.2146 19.3302 16.7973 19.3055 16.302V16.17L19.197 16.1275C18.9074 16.0371 18.6684 15.8305 18.537 15.5571C18.4458 15.3392 18.4291 15.0972 18.4898 14.8687C18.583 14.8895 18.6775 14.9038 18.7726 14.9112C18.8684 14.9161 18.9645 14.9161 19.0602 14.9112C19.8234 14.9095 20.55 14.5838 21.0591 14.0154L25.0288 14.0581ZM21.988 10.8428L22.7611 11.3142L22.9543 11.4274C22.5534 11.5367 22.1899 11.7535 21.9031 12.0545L21.8842 12.0686C21.8182 12.1394 21.7569 12.2101 21.6957 12.2854L21.658 12.3326C21.5982 12.4081 21.5416 12.4865 21.4883 12.5683L21.46 12.6107C21.394 12.7051 21.3327 12.8087 21.2715 12.9125C20.8431 13.7658 20.0063 14.3392 19.0558 14.4305C18.1088 14.336 17.2761 13.7631 16.8494 12.9125C16.7881 12.8087 16.7268 12.7098 16.6656 12.6155L16.6279 12.5636L16.4629 12.3373L16.4205 12.2854C16.3592 12.21 16.2978 12.1392 16.2367 12.0733L16.2272 12.0356C15.94 11.7362 15.5765 11.5211 15.176 11.4133L15.374 11.3001L16.1471 10.8287L16.939 10.3573L19.0558 11.5501L21.1773 10.3951L21.988 10.8428ZM20.9415 9.89994L19.2491 10.791V7.17497L21.5449 6.39716L20.9415 9.89994ZM19.0557 6.7885L16.543 5.79371C16.7551 5.28931 17.7451 4.85079 19.0557 4.85079C20.3663 4.85079 21.3563 5.28459 21.5731 5.79371L19.0557 6.7885Z" fill="#2F2F2F"/>
</svg>
