<svg width="39" height="39" viewBox="0 0 39 39" fill="none" xmlns="http://www.w3.org/2000/svg">
<path d="M18.4719 0.00398254C18.4134 0.00866699 18.2143 0.0227203 18.027 0.0367699C12.7644 0.418526 7.85777 2.96199 4.45243 7.07463C4.32596 7.2292 4.07771 7.54538 3.90439 7.77724C0.862073 11.829 -0.465869 16.8246 0.145406 21.9115C0.574001 25.4597 2.04012 28.9166 4.31191 31.7364C5.11992 32.7388 6.26284 33.8817 7.26524 34.6897C11.4036 38.0248 16.7131 39.5214 22.0084 38.8445C25.9103 38.3457 29.5077 36.7039 32.5125 34.0457C33.173 33.4625 34.077 32.514 34.6719 31.7786C36.9624 28.9587 38.4356 25.5019 38.8688 21.9349C38.986 20.9794 39 20.7381 39 19.4875C38.9977 18.2345 38.9836 17.9652 38.8688 17.04C38.3372 12.7588 36.3792 8.76559 33.3088 5.69282C30.4492 2.83318 26.7675 0.92675 22.8282 0.261608C21.6431 0.0625343 21.0131 0.00866699 19.6664 0.00164032C19.0668 -0.000701904 18.5305 -0.000701904 18.4719 0.00398254ZM24.7674 19.4945L24.7721 31.5139L23.3036 31.5092L21.8328 31.5022L21.8258 26.9867L21.8211 22.4736H20.5493H19.2776L17.3829 26.7759C16.3407 29.1438 15.4437 31.179 15.3898 31.2961L15.2891 31.5139H13.6145C12.5185 31.5139 11.9376 31.5069 11.9376 31.4905C11.9376 31.4788 12.9283 29.2749 14.1415 26.5933C15.3523 23.914 16.3407 21.7171 16.336 21.7124C16.3313 21.7101 16.2329 21.6469 16.1135 21.5743C15.1556 20.9841 14.2937 20.0636 13.8253 19.1292C13.3944 18.2696 13.1414 17.4148 13.0103 16.3843C12.9705 16.0587 12.9705 14.5387 13.0103 14.1359C13.1742 12.5316 13.6567 11.1662 14.4249 10.1263C15.4858 8.69064 16.9402 7.84516 18.8514 7.55241C19.3643 7.47512 19.6406 7.46809 22.2544 7.47044L24.7603 7.47278L24.7674 19.4945Z" fill="#FF3333"/>
<path d="M19.4723 10.0398C19.0319 10.089 18.6642 10.1967 18.2731 10.3888C17.6665 10.6862 17.2215 11.1312 16.8257 11.8315C16.4978 12.4146 16.2566 13.2461 16.1653 14.1173C16.1231 14.5201 16.1161 15.6841 16.1536 16.0589C16.2355 16.8926 16.4463 17.6632 16.7344 18.1948C17.2309 19.1129 17.9171 19.6211 18.9289 19.8249C19.3317 19.9068 19.6151 19.9209 20.7346 19.9209H21.8213V14.9675V10.014L20.7276 10.0164C20.1233 10.0187 19.5589 10.0281 19.4723 10.0398Z" fill="#FF3333"/>
</svg>
